<svg xmlns="http://www.w3.org/2000/svg" xmlns:xlink="http://www.w3.org/1999/xlink" version="1.1" width="689pt" height="124pt" viewBox="0 0 689 124">
<defs>
<clipPath id="clip_1">
<path transform="matrix(1,0,0,-1,0,124)" d="M0 124H689V0H0Z"/>
</clipPath>
</defs>
<g id="layer_1" data-name="Layer 1">
<g clip-path="url(#clip_1)">
<path transform="matrix(1,0,0,-1,17.0581,57.218698)" d="M0 0C-4.134 2.274-7.374 5.404-9.721 9.391-12.069 13.377-13.243 17.865-13.243 22.854-13.243 27.843-12.069 32.33-9.721 36.317-7.374 40.303-4.122 43.434 .037 45.708 4.193 47.982 8.841 49.12 13.976 49.12 17.986 49.12 21.655 48.446 24.981 47.102 28.307 45.756 31.144 43.764 33.492 41.123L28.723 36.5C24.859 40.56 20.041 42.59 14.27 42.59 10.455 42.59 7.006 41.733 3.925 40.022 .844 38.309-1.566 35.95-3.302 32.942-5.039 29.934-5.906 26.57-5.906 22.854-5.906 19.136-5.039 15.774-3.302 12.766-1.566 9.758 .844 7.397 3.925 5.686 7.006 3.973 10.455 3.118 14.27 3.118 19.992 3.118 24.81 5.172 28.723 9.281L33.492 4.659C31.144 2.018 28.294 .011 24.945-1.357 21.594-2.727 17.913-3.412 13.903-3.412 8.767-3.412 4.132-2.274 0 0" fill="#231f20"/>
<path transform="matrix(1,0,0,-1,64.0132,29.815804)" d="M0 0C-2.274-2.055-3.607-4.745-3.999-8.071H20.947C20.555-4.794 19.223-2.116 16.948-.037 14.674 2.042 11.849 3.081 8.474 3.081 5.099 3.081 2.274 2.054 0 0M27.55-13.133H-3.999C-3.558-16.557-2.054-19.309 .514-21.387 3.082-23.466 6.273-24.505 10.088-24.505 14.734-24.505 18.476-22.94 21.313-19.81L25.202-24.358C23.441-26.413 21.251-27.979 18.636-29.054 16.019-30.13 13.096-30.668 9.868-30.668 5.76-30.668 2.115-29.824-1.063-28.137-4.244-26.449-6.702-24.09-8.437-21.057-10.174-18.024-11.042-14.6-11.042-10.785-11.042-7.02-10.198-3.621-8.51-.587-6.823 2.445-4.5 4.805-1.541 6.493 1.418 8.18 4.756 9.024 8.474 9.024 12.19 9.024 15.505 8.18 18.416 6.493 21.325 4.805 23.599 2.445 25.239-.587 26.877-3.621 27.696-7.093 27.696-11.005 27.696-11.544 27.647-12.252 27.55-13.133" fill="#231f20"/>
<path transform="matrix(1,0,0,-1,132.1714,25.0839)" d="M0 0C2.91-2.861 4.365-7.056 4.365-12.583V-34.959H-2.678V-13.39C-2.678-9.624-3.583-6.787-5.393-4.879-7.203-2.971-9.794-2.018-13.169-2.018-16.984-2.018-19.993-3.131-22.193-5.356-24.395-7.582-25.495-10.773-25.495-14.93V-34.959H-32.539V3.925H-25.789V-1.944C-24.371 .061-22.45 1.602-20.029 2.678-17.608 3.753-14.857 4.292-11.775 4.292-6.836 4.292-2.911 2.861 0 0" fill="#231f20"/>
<path transform="matrix(1,0,0,-1,169.626,57.768999)" d="M0 0C-1.027-.88-2.3-1.553-3.815-2.018-5.332-2.482-6.896-2.715-8.511-2.715-12.424-2.715-15.457-1.664-17.608 .44-19.761 2.542-20.836 5.551-20.836 9.464V30.814H-27.439V36.61H-20.836V45.121H-13.793V36.61H-2.641V30.814H-13.793V9.758C-13.793 7.654-13.268 6.04-12.216 4.916-11.165 3.79-9.661 3.228-7.704 3.228-5.552 3.228-3.718 3.839-2.201 5.062Z" fill="#231f20"/>
<path transform="matrix(1,0,0,-1,182.4277,29.815804)" d="M0 0C-2.274-2.055-3.607-4.745-3.999-8.071H20.947C20.555-4.794 19.223-2.116 16.948-.037 14.674 2.042 11.849 3.081 8.474 3.081 5.099 3.081 2.274 2.054 0 0M27.55-13.133H-3.999C-3.558-16.557-2.054-19.309 .514-21.387 3.082-23.466 6.273-24.505 10.088-24.505 14.734-24.505 18.476-22.94 21.313-19.81L25.202-24.358C23.441-26.413 21.251-27.979 18.636-29.054 16.019-30.13 13.096-30.668 9.868-30.668 5.76-30.668 2.115-29.824-1.063-28.137-4.244-26.449-6.702-24.09-8.437-21.057-10.174-18.024-11.042-14.6-11.042-10.785-11.042-7.02-10.198-3.621-8.51-.587-6.823 2.445-4.5 4.805-1.541 6.493 1.418 8.18 4.756 9.024 8.474 9.024 12.19 9.024 15.505 8.18 18.416 6.493 21.325 4.805 23.599 2.445 25.239-.587 26.877-3.621 27.696-7.093 27.696-11.005 27.696-11.544 27.647-12.252 27.55-13.133" fill="#231f20"/>
<path transform="matrix(1,0,0,-1,230.2271,22.552597)" d="M0 0C2.396 1.174 5.307 1.761 8.73 1.761V-5.062C8.339-5.014 7.801-4.989 7.117-4.989 3.301-4.989 .305-6.126-1.871-8.4-4.048-10.675-5.136-13.916-5.136-18.122V-37.491H-12.179V1.394H-5.429V-5.136C-4.207-2.887-2.397-1.174 0 0" fill="#231f20"/>
<path transform="matrix(1,0,0,-1,272.1187,17.7836)" d="M0 0V-3.375H11.299V-9.171H.147V-42.26H-6.896V-9.171H-13.5V-3.375H-6.896V.073C-6.896 3.937-5.772 6.994-3.521 9.244-1.272 11.493 1.882 12.619 5.943 12.619 7.507 12.619 8.975 12.423 10.345 12.032 11.713 11.64 12.888 11.078 13.867 10.345L11.739 4.989C10.125 6.211 8.314 6.823 6.31 6.823 2.103 6.823 0 4.549 0 0" fill="#231f20"/>
<path transform="matrix(1,0,0,-1,311.04,52.596605)" d="M0 0C1.981 1.148 3.533 2.763 4.659 4.842 5.783 6.92 6.346 9.305 6.346 11.996 6.346 14.685 5.783 17.069 4.659 19.149 3.533 21.227 1.981 22.829 0 23.955-1.981 25.079-4.219 25.642-6.713 25.642-9.208 25.642-11.445 25.079-13.426 23.955-15.407 22.829-16.973 21.227-18.122 19.149-19.271 17.069-19.846 14.685-19.846 11.996-19.846 9.305-19.271 6.92-18.122 4.842-16.973 2.763-15.407 1.148-13.426 0-11.445-1.15-9.208-1.724-6.713-1.724-4.219-1.724-1.981-1.15 0 0M-17.131-5.319C-20.213-3.607-22.623-1.247-24.358 1.761-26.095 4.769-26.962 8.181-26.962 11.996-26.962 15.811-26.095 19.222-24.358 22.23-22.623 25.238-20.213 27.586-17.131 29.273-14.05 30.961-10.578 31.805-6.713 31.805-2.85 31.805 .611 30.961 3.668 29.273 6.725 27.586 9.122 25.238 10.858 22.23 12.594 19.222 13.463 15.811 13.463 11.996 13.463 8.181 12.594 4.769 10.858 1.761 9.122-1.247 6.725-3.607 3.668-5.319 .611-7.032-2.85-7.887-6.713-7.887-10.578-7.887-14.05-7.032-17.131-5.319" fill="#231f20"/>
<path transform="matrix(1,0,0,-1,344.6055,22.552597)" d="M0 0C2.396 1.174 5.307 1.761 8.73 1.761V-5.062C8.339-5.014 7.801-4.989 7.117-4.989 3.301-4.989 .305-6.126-1.871-8.4-4.048-10.675-5.136-13.916-5.136-18.122V-37.491H-12.179V1.394H-5.429V-5.136C-4.207-2.887-2.397-1.174 0 0" fill="#231f20"/>
<path transform="matrix(1,0,0,-1,410.0479,35.1718)" d="M0 0C2.445 2.005 3.668 4.866 3.668 8.584 3.668 12.3 2.445 15.15 0 17.131-2.446 19.112-5.992 20.103-10.638 20.103H-23.11V-3.008H-10.638C-5.992-3.008-2.446-2.006 0 0M3.889-24.872-7.19-9.098C-8.56-9.196-9.636-9.244-10.418-9.244H-23.11V-24.872H-30.447V26.486H-10.418C-3.767 26.486 1.467 24.896 5.283 21.717 9.098 18.537 11.005 14.16 11.005 8.584 11.005 4.622 10.026 1.247 8.071-1.541 6.114-4.329 3.326-6.359-.293-7.63L11.886-24.872Z" fill="#231f20"/>
<path transform="matrix(1,0,0,-1,453.4438,52.596605)" d="M0 0C1.981 1.148 3.533 2.763 4.659 4.842 5.783 6.92 6.346 9.305 6.346 11.996 6.346 14.685 5.783 17.069 4.659 19.149 3.533 21.227 1.981 22.829 0 23.955-1.981 25.079-4.219 25.642-6.713 25.642-9.208 25.642-11.445 25.079-13.426 23.955-15.407 22.829-16.973 21.227-18.122 19.149-19.271 17.069-19.846 14.685-19.846 11.996-19.846 9.305-19.271 6.92-18.122 4.842-16.973 2.763-15.407 1.148-13.426 0-11.445-1.15-9.208-1.724-6.713-1.724-4.219-1.724-1.981-1.15 0 0M-17.131-5.319C-20.213-3.607-22.623-1.247-24.358 1.761-26.095 4.769-26.962 8.181-26.962 11.996-26.962 15.811-26.095 19.222-24.358 22.23-22.623 25.238-20.213 27.586-17.131 29.273-14.05 30.961-10.578 31.805-6.713 31.805-2.85 31.805 .611 30.961 3.668 29.273 6.725 27.586 9.122 25.238 10.858 22.23 12.594 19.222 13.463 15.811 13.463 11.996 13.463 8.181 12.594 4.769 10.858 1.761 9.122-1.247 6.725-3.607 3.668-5.319 .611-7.032-2.85-7.887-6.713-7.887-10.578-7.887-14.05-7.032-17.131-5.319" fill="#231f20"/>
<path transform="matrix(1,0,0,-1,501.5723,52.596605)" d="M0 0C1.98 1.148 3.547 2.763 4.695 4.842 5.844 6.92 6.42 9.305 6.42 11.996 6.42 14.685 5.844 17.069 4.695 19.149 3.547 21.227 1.98 22.829 0 23.955-1.98 25.079-4.219 25.642-6.713 25.642-9.158 25.642-11.385 25.079-13.389 23.955-15.396 22.829-16.96 21.227-18.084 19.149-19.21 17.069-19.772 14.685-19.772 11.996-19.772 9.305-19.21 6.92-18.084 4.842-16.96 2.763-15.396 1.148-13.389 0-11.385-1.15-9.158-1.724-6.713-1.724-4.219-1.724-1.98-1.15 0 0M3.998 29.31C6.982 27.647 9.318 25.323 11.006 22.34 12.693 19.356 13.537 15.908 13.537 11.996 13.537 8.082 12.693 4.622 11.006 1.614 9.318-1.394 6.982-3.73 3.998-5.393 1.016-7.056-2.359-7.887-6.125-7.887-9.012-7.887-11.654-7.325-14.049-6.2-16.446-5.075-18.427-3.437-19.992-1.284V-7.447H-26.742V46.992H-19.699V25.568C-18.134 27.623-16.177 29.175-13.83 30.228-11.482 31.279-8.914 31.805-6.125 31.805-2.359 31.805 1.016 30.973 3.998 29.31" fill="#231f20"/>
<path transform="matrix(1,0,0,-1,546.3994,52.596605)" d="M0 0C1.98 1.148 3.533 2.763 4.659 4.842 5.783 6.92 6.347 9.305 6.347 11.996 6.347 14.685 5.783 17.069 4.659 19.149 3.533 21.227 1.98 22.829 0 23.955-1.98 25.079-4.219 25.642-6.713 25.642-9.208 25.642-11.445 25.079-13.426 23.955-15.407 22.829-16.973 21.227-18.122 19.149-19.271 17.069-19.846 14.685-19.846 11.996-19.846 9.305-19.271 6.92-18.122 4.842-16.973 2.763-15.407 1.148-13.426 0-11.445-1.15-9.208-1.724-6.713-1.724-4.219-1.724-1.98-1.15 0 0M-17.131-5.319C-20.213-3.607-22.622-1.247-24.358 1.761-26.095 4.769-26.963 8.181-26.963 11.996-26.963 15.811-26.095 19.222-24.358 22.23-22.622 25.238-20.213 27.586-17.131 29.273-14.05 30.961-10.577 31.805-6.713 31.805-2.85 31.805 .611 30.961 3.668 29.273 6.725 27.586 9.122 25.238 10.858 22.23 12.594 19.222 13.463 15.811 13.463 11.996 13.463 8.181 12.594 4.769 10.858 1.761 9.122-1.247 6.725-3.607 3.668-5.319 .611-7.032-2.85-7.887-6.713-7.887-10.577-7.887-14.05-7.032-17.131-5.319" fill="#231f20"/>
<path transform="matrix(1,0,0,-1,589.6494,57.768999)" d="M0 0C-1.027-.88-2.3-1.553-3.815-2.018-5.332-2.482-6.896-2.715-8.511-2.715-12.425-2.715-15.457-1.664-17.608 .44-19.761 2.542-20.837 5.551-20.837 9.464V30.814H-27.439V36.61H-20.837V45.121H-13.793V36.61H-2.642V30.814H-13.793V9.758C-13.793 7.654-13.269 6.04-12.216 4.916-11.165 3.79-9.66 3.228-7.704 3.228-5.552 3.228-3.718 3.839-2.201 5.062Z" fill="#231f20"/>
<path transform="matrix(1,0,0,-1,0,124)" d="M596.325 102.841H603.36807V63.956007H596.325ZM596.435 111.646C595.529 112.526 595.077 113.601 595.077 114.874 595.077 116.145 595.529 117.233 596.435 118.138 597.34 119.043 598.477 119.496 599.847 119.496 601.215 119.496 602.353 119.067 603.258 118.212 604.162 117.356 604.615 116.292 604.615 115.02 604.615 113.7 604.162 112.587 603.258 111.682 602.353 110.776 601.215 110.325 599.847 110.325 598.477 110.325 597.34 110.765 596.435 111.646" fill="#231f20"/>
<path transform="matrix(1,0,0,-1,621.3057,57.9159)" d="M0 0C-3.106 1.712-5.539 4.072-7.3 7.08-9.061 10.088-9.941 13.5-9.941 17.315-9.941 21.13-9.061 24.542-7.3 27.55-5.539 30.558-3.106 32.905 0 34.593 3.105 36.28 6.64 37.124 10.602 37.124 14.123 37.124 17.266 36.415 20.029 34.997 22.792 33.577 24.933 31.523 26.449 28.833L21.094 25.385C19.87 27.244 18.354 28.638 16.545 29.567 14.734 30.496 12.729 30.961 10.528 30.961 7.984 30.961 5.697 30.398 3.669 29.274 1.639 28.148 .049 26.546-1.101 24.468-2.25 22.389-2.824 20.004-2.824 17.315-2.824 14.575-2.25 12.167-1.101 10.088 .049 8.009 1.639 6.407 3.669 5.283 5.697 4.157 7.984 3.595 10.528 3.595 12.729 3.595 14.734 4.06 16.545 4.989 18.354 5.918 19.87 7.312 21.094 9.171L26.449 5.796C24.933 3.106 22.792 1.039 20.029-.403 17.266-1.847 14.123-2.568 10.602-2.568 6.64-2.568 3.105-1.712 0 0" fill="#231f20"/>
<path transform="matrix(1,0,0,-1,656.999,59.1996)" d="M0 0C-2.935 .855-5.234 1.944-6.896 3.265L-3.962 8.841C-2.25 7.618-.172 6.64 2.274 5.906 4.72 5.172 7.19 4.806 9.685 4.806 15.848 4.806 18.929 6.566 18.929 10.088 18.929 11.262 18.513 12.19 17.682 12.876 16.85 13.561 15.811 14.062 14.563 14.38 13.316 14.698 11.543 15.052 9.244 15.444 6.113 15.932 3.559 16.495 1.577 17.131-.403 17.766-2.104 18.843-3.521 20.359-4.94 21.875-5.649 24.002-5.649 26.742-5.649 30.264-4.182 33.089-1.247 35.216 1.687 37.344 5.624 38.408 10.565 38.408 13.157 38.408 15.749 38.089 18.342 37.454 20.934 36.818 23.062 35.961 24.725 34.886L21.717 29.31C18.537 31.365 14.795 32.392 10.491 32.392 7.508 32.392 5.233 31.902 3.669 30.924 2.103 29.945 1.32 28.65 1.32 27.036 1.32 25.763 1.761 24.762 2.642 24.028 3.521 23.294 4.609 22.755 5.906 22.414 7.201 22.071 9.024 21.68 11.372 21.24 14.502 20.701 17.033 20.127 18.966 19.516 20.897 18.903 22.548 17.865 23.918 16.397 25.287 14.93 25.973 12.876 25.973 10.235 25.973 6.713 24.468 3.913 21.46 1.834 18.452-.245 14.354-1.284 9.171-1.284 5.991-1.284 2.935-.855 0 0" fill="#231f20"/>
<path transform="matrix(1,0,0,-1,147.3955,110.103)" d="M0 0C1.114 .683 1.923 1.651 2.425 2.905V5.999H-3.762C-7.163 5.999-8.862 4.855-8.862 2.571-8.862 1.456-8.43 .578-7.566-.062-6.703-.704-5.504-1.024-3.971-1.024-2.439-1.024-1.115-.683 0 0M3.992 16.24C5.623 14.735 6.438 12.492 6.438 9.51V-3.867H2.634V-.94C1.965-1.972 1.01-2.759-.229-3.302-1.47-3.846-2.94-4.118-4.64-4.118-7.121-4.118-9.106-3.519-10.597-2.32-12.088-1.122-12.833 .453-12.833 2.404-12.833 4.354-12.123 5.922-10.701 7.106-9.28 8.291-7.022 8.883-3.929 8.883H2.425V9.677C2.425 11.405 1.923 12.729 .92 13.648-.083 14.568-1.561 15.028-3.511 15.028-4.821 15.028-6.103 14.812-7.357 14.38-8.611 13.948-9.67 13.37-10.534 12.646L-12.206 15.655C-11.064 16.575-9.698 17.278-8.109 17.766-6.521 18.253-4.835 18.498-3.051 18.498 .014 18.498 2.362 17.745 3.992 16.24" fill="#231f20"/>
<path transform="matrix(1,0,0,-1,178.7681,94.0507)" d="M0 0C1.658-1.63 2.487-4.02 2.487-7.169V-19.919H-1.525V-7.629C-1.525-5.483-2.042-3.867-3.072-2.78-4.104-1.693-5.581-1.149-7.503-1.149-9.677-1.149-11.391-1.784-12.645-3.052-13.899-4.32-14.526-6.139-14.526-8.507V-19.919H-18.539V2.236H-14.693V-1.108C-13.885 .035-12.792 .913-11.412 1.526-10.032 2.139-8.465 2.445-6.709 2.445-3.895 2.445-1.658 1.63 0 0" fill="#231f20"/>
<path transform="matrix(1,0,0,-1,201.0693,109.7265)" d="M0 0C1.143 .654 2.034 1.574 2.675 2.759 3.316 3.943 3.637 5.302 3.637 6.834 3.637 8.367 3.316 9.726 2.675 10.91 2.034 12.094 1.143 13.007 0 13.648-1.143 14.289-2.411 14.61-3.804 14.61-5.225 14.61-6.5 14.289-7.629 13.648-8.757 13.007-9.65 12.094-10.304 10.91-10.959 9.726-11.287 8.367-11.287 6.834-11.287 5.302-10.959 3.943-10.304 2.759-9.65 1.574-8.757 .654-7.629 0-6.5-.655-5.225-.982-3.804-.982-2.411-.982-1.143-.655 0 0M7.608 26.774V-4.243H3.762V-.732C2.87-1.958 1.741-2.892 .376-3.533-.989-4.174-2.494-4.494-4.138-4.494-6.285-4.494-8.208-4.021-9.907-3.073-11.607-2.125-12.938-.794-13.899 .919-14.861 2.633-15.341 4.604-15.341 6.834-15.341 9.064-14.861 11.028-13.899 12.729-12.938 14.428-11.607 15.752-9.907 16.7-8.208 17.647-6.285 18.121-4.138 18.121-2.55 18.121-1.087 17.821 .251 17.223 1.588 16.623 2.703 15.738 3.595 14.568V26.774Z" fill="#231f20"/>
<path transform="matrix(1,0,0,-1,247.2607,110.3329)" d="M0 0V-3.637H-21.236V25.625H-.585V21.988H-17.056V13H-2.383V9.447H-17.056V0Z" fill="#582d86"/>
<path transform="matrix(1,0,0,-1,286.7437,94.0297)" d="M0 0C1.63-1.617 2.445-4.013 2.445-7.19V-19.94H-1.568V-7.65C-1.568-5.504-2.063-3.888-3.052-2.801-4.042-1.714-5.456-1.17-7.295-1.17-9.329-1.17-10.946-1.805-12.144-3.073-13.342-4.341-13.941-6.16-13.941-8.528V-19.94H-17.955V-7.65C-17.955-5.504-18.45-3.888-19.438-2.801-20.428-1.714-21.842-1.17-23.681-1.17-25.716-1.17-27.333-1.805-28.53-3.073-29.729-4.341-30.328-6.16-30.328-8.528V-19.94H-34.341V2.215H-30.495V-1.087C-29.687 .055-28.628 .926-27.318 1.526-26.009 2.125-24.518 2.424-22.845 2.424-21.118 2.424-19.584 2.076-18.247 1.379-16.909 .683-15.878-.334-15.154-1.672-14.317-.391-13.154 .613-11.663 1.337-10.172 2.062-8.493 2.424-6.626 2.424-3.839 2.424-1.63 1.616 0 0" fill="#582d86"/>
<path transform="matrix(1,0,0,-1,310.7793,109.7265)" d="M0 0C1.129 .654 2.021 1.574 2.675 2.759 3.33 3.943 3.658 5.302 3.658 6.834 3.658 8.367 3.33 9.726 2.675 10.91 2.021 12.094 1.129 13.007 0 13.648-1.128 14.289-2.404 14.61-3.825 14.61-5.219 14.61-6.486 14.289-7.629 13.648-8.772 13.007-9.664 12.094-10.304 10.91-10.946 9.726-11.266 8.367-11.266 6.834-11.266 5.302-10.946 3.943-10.304 2.759-9.664 1.574-8.772 .654-7.629 0-6.486-.655-5.219-.982-3.825-.982-2.404-.982-1.128-.655 0 0M2.278 16.7C3.978 15.752 5.309 14.428 6.271 12.729 7.232 11.028 7.713 9.064 7.713 6.834 7.713 4.604 7.232 2.633 6.271 .919 5.309-.794 3.978-2.125 2.278-3.073 .578-4.021-1.345-4.494-3.49-4.494-5.135-4.494-6.64-4.174-8.005-3.533-9.371-2.892-10.5-1.958-11.391-.732V-4.243H-15.237V26.774H-11.224V14.568C-10.333 15.738-9.217 16.623-7.88 17.223-6.542 17.821-5.079 18.121-3.49 18.121-1.345 18.121 .578 17.647 2.278 16.7" fill="#582d86"/>
<path transform="matrix(1,0,0,-1,336.3203,109.7265)" d="M0 0C1.129 .654 2.013 1.574 2.654 2.759 3.295 3.943 3.616 5.302 3.616 6.834 3.616 8.367 3.295 9.726 2.654 10.91 2.013 12.094 1.129 13.007 0 13.648-1.129 14.289-2.404 14.61-3.825 14.61-5.246 14.61-6.521 14.289-7.65 13.648-8.778 13.007-9.671 12.094-10.325 10.91-10.98 9.726-11.308 8.367-11.308 6.834-11.308 5.302-10.98 3.943-10.325 2.759-9.671 1.574-8.778 .654-7.65 0-6.521-.655-5.246-.982-3.825-.982-2.404-.982-1.129-.655 0 0M-9.761-3.031C-11.517-2.056-12.89-.711-13.878 1.003-14.868 2.717-15.362 4.661-15.362 6.834-15.362 9.008-14.868 10.952-13.878 12.666-12.89 14.38-11.517 15.718-9.761 16.679-8.005 17.641-6.027 18.121-3.825 18.121-1.624 18.121 .348 17.641 2.09 16.679 3.832 15.718 5.197 14.38 6.187 12.666 7.176 10.952 7.671 9.008 7.671 6.834 7.671 4.661 7.176 2.717 6.187 1.003 5.197-.711 3.832-2.056 2.09-3.031 .348-4.007-1.624-4.494-3.825-4.494-6.027-4.494-8.005-4.007-9.761-3.031" fill="#582d86"/>
<path transform="matrix(1,0,0,-1,361.7988,109.7265)" d="M0 0C1.143 .654 2.034 1.574 2.675 2.759 3.316 3.943 3.637 5.302 3.637 6.834 3.637 8.367 3.316 9.726 2.675 10.91 2.034 12.094 1.143 13.007 0 13.648-1.143 14.289-2.411 14.61-3.804 14.61-5.225 14.61-6.5 14.289-7.629 13.648-8.757 13.007-9.65 12.094-10.304 10.91-10.959 9.726-11.287 8.367-11.287 6.834-11.287 5.302-10.959 3.943-10.304 2.759-9.65 1.574-8.757 .654-7.629 0-6.5-.655-5.225-.982-3.804-.982-2.411-.982-1.143-.655 0 0M7.608 26.774V-4.243H3.762V-.732C2.87-1.958 1.741-2.892 .376-3.533-.989-4.174-2.494-4.494-4.138-4.494-6.285-4.494-8.208-4.021-9.907-3.073-11.607-2.125-12.938-.794-13.899 .919-14.861 2.633-15.341 4.604-15.341 6.834-15.341 9.064-14.861 11.028-13.899 12.729-12.938 14.428-11.607 15.752-9.907 16.7-8.208 17.647-6.285 18.121-4.138 18.121-2.55 18.121-1.087 17.821 .251 17.223 1.588 16.623 2.703 15.738 3.595 14.568V26.774Z" fill="#582d86"/>
<path transform="matrix(1,0,0,-1,0,124)" d="M375.97 32.186H379.983V10.031H375.97ZM376.032 37.202C375.516 37.704 375.259 38.316 375.259 39.042 375.259 39.766 375.516 40.385 376.032 40.901 376.548 41.417 377.195 41.675 377.976 41.675 378.756 41.675 379.404 41.431 379.92 40.943 380.435 40.456 380.693 39.849 380.693 39.125 380.693 38.373 380.435 37.738 379.92 37.223 379.404 36.707 378.756 36.45 377.976 36.45 377.195 36.45 376.548 36.7 376.032 37.202" fill="#582d86"/>
<path transform="matrix(1,0,0,-1,390.8301,96.747)" d="M0 0C-1.296-1.17-2.055-2.704-2.278-4.598H11.935C11.711-2.731 10.953-1.206 9.657-.021 8.361 1.163 6.751 1.756 4.828 1.756 2.905 1.756 1.296 1.17 0 0M15.697-7.482H-2.278C-2.027-9.434-1.17-11.001 .293-12.186 1.756-13.37 3.574-13.962 5.748-13.962 8.396-13.962 10.527-13.07 12.144-11.287L14.359-13.878C13.356-15.049 12.108-15.941 10.618-16.554 9.127-17.167 7.462-17.474 5.623-17.474 3.282-17.474 1.205-16.993-.606-16.031-2.418-15.07-3.818-13.726-4.807-11.998-5.797-10.27-6.291-8.319-6.291-6.145-6.291-4-5.811-2.063-4.849-.334-3.888 1.393-2.564 2.738-.878 3.7 .808 4.661 2.71 5.142 4.828 5.142 6.946 5.142 8.834 4.661 10.493 3.7 12.15 2.738 13.446 1.393 14.38-.334 15.313-2.063 15.781-4.041 15.781-6.271 15.781-6.577 15.752-6.981 15.697-7.482" fill="#582d86"/>
<path transform="matrix(1,0,0,-1,424.4185,109.7265)" d="M0 0C1.143 .654 2.034 1.574 2.675 2.759 3.316 3.943 3.637 5.302 3.637 6.834 3.637 8.367 3.316 9.726 2.675 10.91 2.034 12.094 1.143 13.007 0 13.648-1.143 14.289-2.411 14.61-3.804 14.61-5.225 14.61-6.5 14.289-7.629 13.648-8.757 13.007-9.65 12.094-10.304 10.91-10.959 9.726-11.287 8.367-11.287 6.834-11.287 5.302-10.959 3.943-10.304 2.759-9.65 1.574-8.757 .654-7.629 0-6.5-.655-5.225-.982-3.804-.982-2.411-.982-1.143-.655 0 0M7.608 26.774V-4.243H3.762V-.732C2.87-1.958 1.741-2.892 .376-3.533-.989-4.174-2.494-4.494-4.138-4.494-6.285-4.494-8.208-4.021-9.907-3.073-11.607-2.125-12.938-.794-13.899 .919-14.861 2.633-15.341 4.604-15.341 6.834-15.341 9.064-14.861 11.028-13.899 12.729-12.938 14.428-11.607 15.752-9.907 16.7-8.208 17.647-6.285 18.121-4.138 18.121-2.55 18.121-1.087 17.821 .251 17.223 1.588 16.623 2.703 15.738 3.595 14.568V26.774Z" fill="#582d86"/>
<path transform="matrix(1,0,0,-1,0,124)" d="M449.374 39.292H453.554V10.030001H449.374Z" fill="#582d86"/>
<path transform="matrix(1,0,0,-1,479.2417,94.0507)" d="M0 0C1.658-1.63 2.487-4.02 2.487-7.169V-19.919H-1.525V-7.629C-1.525-5.483-2.042-3.867-3.072-2.78-4.104-1.693-5.581-1.149-7.503-1.149-9.677-1.149-11.391-1.784-12.645-3.052-13.899-4.32-14.526-6.139-14.526-8.507V-19.919H-18.539V2.236H-14.693V-1.108C-13.885 .035-12.792 .913-11.412 1.526-10.032 2.139-8.465 2.445-6.709 2.445-3.895 2.445-1.658 1.63 0 0" fill="#582d86"/>
<path transform="matrix(1,0,0,-1,500.582,112.6738)" d="M0 0C-.586-.501-1.311-.885-2.174-1.149-3.037-1.414-3.93-1.547-4.85-1.547-7.078-1.547-8.807-.948-10.033 .251-11.26 1.449-11.872 3.163-11.872 5.393V17.557H-15.634V20.859H-11.872V25.709H-7.859V20.859H-1.506V17.557H-7.859V5.56C-7.859 4.361-7.561 3.441-6.961 2.801-6.361 2.159-5.504 1.839-4.389 1.839-3.164 1.839-2.119 2.188-1.254 2.884Z" fill="#582d86"/>
<path transform="matrix(1,0,0,-1,507.877,96.747)" d="M0 0C-1.296-1.17-2.056-2.704-2.278-4.598H11.935C11.711-2.731 10.952-1.206 9.656-.021 8.36 1.163 6.751 1.756 4.828 1.756 2.905 1.756 1.296 1.17 0 0M15.697-7.482H-2.278C-2.027-9.434-1.17-11.001 .293-12.186 1.756-13.37 3.574-13.962 5.748-13.962 8.396-13.962 10.527-13.07 12.144-11.287L14.359-13.878C13.356-15.049 12.108-15.941 10.618-16.554 9.127-17.167 7.462-17.474 5.623-17.474 3.281-17.474 1.205-16.993-.606-16.031-2.418-15.07-3.818-13.726-4.808-11.998-5.797-10.27-6.291-8.319-6.291-6.145-6.291-4-5.811-2.063-4.849-.334-3.888 1.393-2.564 2.738-.878 3.7 .808 4.661 2.71 5.142 4.828 5.142 6.946 5.142 8.834 4.661 10.492 3.7 12.15 2.738 13.446 1.393 14.38-.334 15.313-2.063 15.78-4.041 15.78-6.271 15.78-6.577 15.753-6.981 15.697-7.482" fill="#582d86"/>
<path transform="matrix(1,0,0,-1,0,124)" d="M528.171 41.048H532.185V10.030001H528.171Z" fill="#582d86"/>
<path transform="matrix(1,0,0,-1,0,124)" d="M538.789 41.048H542.803V10.030001H538.789Z" fill="#582d86"/>
<path transform="matrix(1,0,0,-1,0,124)" d="M549.406 32.186H553.42V10.031H549.406ZM549.47 37.202C548.953 37.704 548.696 38.316 548.696 39.042 548.696 39.766 548.953 40.385 549.47 40.901 549.984 41.417 550.633 41.675 551.413 41.675 552.193 41.675 552.841 41.431 553.356 40.943 553.872 40.456 554.13 39.849 554.13 39.125 554.13 38.373 553.872 37.738 553.356 37.223 552.841 36.707 552.193 36.45 551.413 36.45 550.633 36.45 549.984 36.7 549.47 37.202" fill="#582d86"/>
<path transform="matrix(1,0,0,-1,573.5889,108.6191)" d="M0 0C1.156 .613 2.062 1.47 2.717 2.571 3.371 3.671 3.699 4.918 3.699 6.312 3.699 8.458 2.988 10.193 1.567 11.517 .146 12.84-1.68 13.502-3.909 13.502-6.166 13.502-8.005 12.84-9.427 11.517-10.848 10.193-11.559 8.458-11.559 6.312-11.559 4.918-11.231 3.671-10.576 2.571-9.922 1.47-9.016 .613-7.859 0-6.703-.613-5.386-.919-3.909-.919-2.46-.919-1.157-.613 0 0M7.629 16.805V-2.341C7.629-6.214 6.667-9.078 4.744-10.931 2.821-12.784-.049-13.711-3.867-13.711-5.957-13.711-7.95-13.425-9.845-12.854-11.74-12.283-13.272-11.467-14.443-10.409L-12.521-7.315C-11.489-8.207-10.215-8.91-8.695-9.426-7.177-9.942-5.609-10.2-3.992-10.2-1.4-10.2 .516-9.586 1.756-8.36 2.995-7.134 3.616-5.267 3.616-2.759V-1.003C2.668-2.146 1.505-3.003 .125-3.574-1.254-4.146-2.753-4.431-4.368-4.431-6.486-4.431-8.402-3.979-10.116-3.072-11.83-2.167-13.175-.898-14.15 .732-15.126 2.362-15.613 4.222-15.613 6.312-15.613 8.402-15.126 10.263-14.15 11.893-13.175 13.523-11.83 14.784-10.116 15.676-8.402 16.568-6.486 17.014-4.368 17.014-2.696 17.014-1.144 16.707 .292 16.094 1.728 15.481 2.905 14.575 3.825 13.377V16.805Z" fill="#582d86"/>
<path transform="matrix(1,0,0,-1,592.0654,96.747)" d="M0 0C-1.296-1.17-2.056-2.704-2.278-4.598H11.935C11.711-2.731 10.952-1.206 9.656-.021 8.36 1.163 6.751 1.756 4.828 1.756 2.905 1.756 1.296 1.17 0 0M15.697-7.482H-2.278C-2.027-9.434-1.17-11.001 .293-12.186 1.756-13.37 3.574-13.962 5.748-13.962 8.396-13.962 10.527-13.07 12.144-11.287L14.359-13.878C13.356-15.049 12.108-15.941 10.618-16.554 9.127-17.167 7.462-17.474 5.623-17.474 3.281-17.474 1.205-16.993-.606-16.031-2.418-15.07-3.818-13.726-4.808-11.998-5.797-10.27-6.291-8.319-6.291-6.145-6.291-4-5.811-2.063-4.849-.334-3.888 1.393-2.564 2.738-.878 3.7 .808 4.661 2.71 5.142 4.828 5.142 6.946 5.142 8.834 4.661 10.492 3.7 12.15 2.738 13.446 1.393 14.38-.334 15.313-2.063 15.78-4.041 15.78-6.271 15.78-6.577 15.753-6.981 15.697-7.482" fill="#582d86"/>
<path transform="matrix(1,0,0,-1,630.9004,94.0507)" d="M0 0C1.657-1.63 2.487-4.02 2.487-7.169V-19.919H-1.526V-7.629C-1.526-5.483-2.042-3.867-3.072-2.78-4.104-1.693-5.581-1.149-7.504-1.149-9.678-1.149-11.392-1.784-12.646-3.052-13.899-4.32-14.526-6.139-14.526-8.507V-19.919H-18.54V2.236H-14.694V-1.108C-13.886 .035-12.792 .913-11.412 1.526-10.033 2.139-8.465 2.445-6.71 2.445-3.896 2.445-1.658 1.63 0 0" fill="#582d86"/>
<path transform="matrix(1,0,0,-1,643.5234,112.7572)" d="M0 0C-1.771 .975-3.156 2.32-4.159 4.034-5.162 5.748-5.664 7.691-5.664 9.865-5.664 12.039-5.162 13.983-4.159 15.697-3.156 17.411-1.771 18.749 0 19.71 1.77 20.671 3.783 21.152 6.04 21.152 8.047 21.152 9.837 20.748 11.412 19.94 12.986 19.131 14.206 17.96 15.07 16.428L12.019 14.463C11.321 15.522 10.457 16.316 9.427 16.846 8.396 17.375 7.253 17.641 5.999 17.641 4.55 17.641 3.246 17.32 2.09 16.679 .934 16.038 .027 15.125-.627 13.941-1.282 12.756-1.609 11.397-1.609 9.865-1.609 8.304-1.282 6.932-.627 5.748 .027 4.563 .934 3.65 2.09 3.01 3.246 2.368 4.55 2.048 5.999 2.048 7.253 2.048 8.396 2.313 9.427 2.842 10.457 3.372 11.321 4.166 12.019 5.225L15.07 3.302C14.206 1.77 12.986 .592 11.412-.23 9.837-1.052 8.047-1.463 6.04-1.463 3.783-1.463 1.77-.976 0 0" fill="#582d86"/>
<path transform="matrix(1,0,0,-1,666.6406,96.747)" d="M0 0C-1.296-1.17-2.056-2.704-2.278-4.598H11.935C11.711-2.731 10.952-1.206 9.656-.021 8.36 1.163 6.751 1.756 4.828 1.756 2.905 1.756 1.296 1.17 0 0M15.697-7.482H-2.278C-2.027-9.434-1.17-11.001 .293-12.186 1.756-13.37 3.574-13.962 5.748-13.962 8.396-13.962 10.527-13.07 12.144-11.287L14.359-13.878C13.356-15.049 12.108-15.941 10.618-16.554 9.127-17.167 7.462-17.474 5.623-17.474 3.281-17.474 1.205-16.993-.606-16.031-2.418-15.07-3.818-13.726-4.808-11.998-5.797-10.27-6.291-8.319-6.291-6.145-6.291-4-5.811-2.063-4.849-.334-3.888 1.393-2.564 2.738-.878 3.7 .808 4.661 2.71 5.142 4.828 5.142 6.946 5.142 8.834 4.661 10.492 3.7 12.15 2.738 13.446 1.393 14.38-.334 15.313-2.063 15.78-4.041 15.78-6.271 15.78-6.577 15.753-6.981 15.697-7.482" fill="#582d86"/>
<path transform="matrix(1,0,0,-1,0,124)" d="M119.771 20.472H8.094002V22.472H119.771Z" fill="#231f20"/>
</g>
</g>
</svg>
