<?xml version="1.0" encoding="utf-8"?>
<!-- Generator: Adobe Illustrator 25.2.0, SVG Export Plug-In . SVG Version: 6.00 Build 0)  -->
<svg version="1.1" id="Layer_1" xmlns="http://www.w3.org/2000/svg" xmlns:xlink="http://www.w3.org/1999/xlink" x="0px" y="0px"
	 viewBox="0 0 2000 2000" style="enable-background:new 0 0 2000 2000;" xml:space="preserve">
<style type="text/css">
	.st0{fill:url(#SVGID_1_);}
	.st1{fill:url(#SVGID_2_);}
	.st2{fill:url(#SVGID_3_);}
	.st3{fill:url(#SVGID_4_);}
	.st4{fill:url(#SVGID_5_);}
	.st5{fill:url(#SVGID_6_);}
	.st6{fill:url(#SVGID_7_);}
	.st7{fill:url(#SVGID_8_);}
	.st8{fill:url(#SVGID_9_);}
	.st9{fill:url(#SVGID_10_);}
	.st10{fill:url(#SVGID_11_);}
	.st11{fill:url(#SVGID_12_);}
	.st12{fill:url(#SVGID_13_);}
	.st13{fill:url(#SVGID_14_);}
	.st14{fill:url(#SVGID_15_);}
	.st15{fill:url(#SVGID_16_);}
	.st16{fill:url(#SVGID_17_);}
	.st17{fill:url(#SVGID_18_);}
	.st18{fill:url(#SVGID_19_);}
	.st19{fill:url(#SVGID_20_);}
	.st20{fill:url(#SVGID_21_);}
	.st21{fill:url(#SVGID_22_);}
	.st22{fill:url(#SVGID_23_);}
	.st23{fill:url(#SVGID_24_);}
	.st24{fill:url(#SVGID_25_);}
	.st25{fill:url(#SVGID_26_);}
	.st26{fill:url(#SVGID_27_);}
	.st27{fill:url(#SVGID_28_);}
	.st28{fill:url(#SVGID_29_);}
	.st29{fill:url(#SVGID_30_);}
	.st30{fill:url(#SVGID_31_);}
	.st31{fill:url(#SVGID_32_);}
	.st32{fill:url(#SVGID_33_);}
	.st33{fill:url(#SVGID_34_);}
	.st34{fill:url(#SVGID_35_);}
	.st35{fill:url(#SVGID_36_);}
	.st36{fill:url(#SVGID_37_);}
	.st37{fill:url(#SVGID_38_);}
	.st38{fill:url(#SVGID_39_);}
	.st39{fill:url(#SVGID_40_);}
	.st40{fill:url(#SVGID_41_);}
	.st41{fill:url(#SVGID_42_);}
	.st42{fill:url(#SVGID_43_);}
	.st43{fill:url(#SVGID_44_);}
	.st44{fill:url(#SVGID_45_);}
	.st45{fill:url(#SVGID_46_);}
	.st46{fill:url(#SVGID_47_);}
	.st47{fill:url(#SVGID_48_);}
	.st48{fill:url(#SVGID_49_);}
	.st49{fill:url(#SVGID_50_);}
	.st50{fill:url(#SVGID_51_);}
	.st51{fill:url(#SVGID_52_);}
	.st52{fill:url(#SVGID_53_);}
	.st53{fill:url(#SVGID_54_);}
	.st54{fill:url(#SVGID_55_);}
	.st55{fill:url(#SVGID_56_);}
	.st56{fill:url(#SVGID_57_);}
	.st57{fill:url(#SVGID_58_);}
	.st58{fill:url(#SVGID_59_);}
	.st59{fill:url(#SVGID_60_);}
	.st60{fill:url(#SVGID_61_);}
	.st61{fill:url(#SVGID_62_);}
	.st62{fill:url(#SVGID_63_);}
	.st63{fill:url(#SVGID_64_);}
	.st64{fill:url(#SVGID_65_);}
	.st65{fill:url(#SVGID_66_);}
	.st66{fill:url(#SVGID_67_);}
	.st67{fill:url(#SVGID_68_);}
	.st68{fill:url(#SVGID_69_);}
	.st69{fill:url(#SVGID_70_);}
	.st70{fill:url(#SVGID_71_);}
	.st71{fill:url(#SVGID_72_);}
	.st72{fill:url(#SVGID_73_);}
	.st73{fill:url(#SVGID_74_);}
	.st74{fill:url(#SVGID_75_);}
	.st75{fill:url(#SVGID_76_);}
	.st76{fill:url(#SVGID_77_);}
	.st77{fill:url(#SVGID_78_);}
	.st78{fill:url(#SVGID_79_);}
	.st79{fill:url(#SVGID_80_);}
	.st80{fill:url(#SVGID_81_);}
	.st81{fill:url(#SVGID_82_);}
	.st82{fill:url(#SVGID_83_);}
	.st83{fill:url(#SVGID_84_);}
	.st84{fill:none;stroke:url(#SVGID_85_);stroke-width:6.0801;stroke-miterlimit:10;}
</style>
<g>
	<g>
		<g>
			<g>
				<g>
					<g>
						<linearGradient id="SVGID_1_" gradientUnits="userSpaceOnUse" x1="743.1758" y1="972.1927" x2="805.6972" y2="972.1927">
							<stop  offset="0" style="stop-color:#0F114C"/>
							<stop  offset="1" style="stop-color:#231F20"/>
						</linearGradient>
						<path class="st0" d="M775.73,1007.43c-6.95,0-12.84-1.28-17.67-3.82c-4.83-2.55-8.52-6.42-11.07-11.61
							c-2.55-5.2-3.82-11.79-3.82-19.8c0-11.84,2.87-20.68,8.64-26.5c5.75-5.82,13.76-8.73,24.02-8.73c5.82,0,10.98,0.94,15.48,2.83
							c4.5,1.89,8.02,4.73,10.57,8.53c2.54,3.81,3.82,8.58,3.82,14.34h-9.53c0-3.97-0.84-7.25-2.53-9.83
							c-1.69-2.58-4.05-4.51-7.1-5.8c-3.05-1.29-6.61-1.94-10.71-1.94c-4.77,0-8.87,0.92-12.31,2.78c-3.44,1.85-6.05,4.72-7.84,8.58
							S753,965.31,753,971.4v2.08c0,6.02,0.89,10.93,2.68,14.74c1.79,3.8,4.38,6.6,7.79,8.38c3.41,1.79,7.53,2.68,12.36,2.68
							c4.23,0,7.89-0.63,10.97-1.89c3.07-1.26,5.46-3.19,7.14-5.81c1.69-2.61,2.53-5.9,2.53-9.88h9.23c0,5.89-1.31,10.72-3.92,14.49
							c-2.61,3.77-6.16,6.59-10.67,8.44C786.61,1006.5,781.48,1007.43,775.73,1007.43z"/>
						<linearGradient id="SVGID_2_" gradientUnits="userSpaceOnUse" x1="814.2307" y1="980.1318" x2="860.7792" y2="980.1318">
							<stop  offset="0" style="stop-color:#0F114C"/>
							<stop  offset="1" style="stop-color:#231F20"/>
						</linearGradient>
						<path class="st1" d="M838.05,1007.43c-5.16,0-9.51-0.98-13.05-2.93c-3.53-1.95-6.22-4.95-8.04-8.98s-2.73-9.16-2.73-15.39
							c0-6.28,0.91-11.43,2.73-15.43c1.82-4,4.52-6.98,8.09-8.93c3.57-1.95,8.04-2.93,13.4-2.93c4.9,0,9,0.94,12.3,2.83
							c3.31,1.89,5.8,4.7,7.49,8.44c1.68,3.74,2.53,8.42,2.53,14.04v4.17h-37.51c0.13,4.17,0.74,7.59,1.83,10.27
							s2.73,4.63,4.91,5.86s4.93,1.83,8.23,1.83c2.25,0,4.22-0.28,5.91-0.84c1.68-0.56,3.11-1.37,4.27-2.43
							c1.16-1.06,2.03-2.31,2.63-3.77c0.59-1.46,0.92-3.04,0.99-4.76h8.53c-0.06,2.78-0.6,5.34-1.59,7.69
							c-0.99,2.35-2.45,4.35-4.36,6c-1.92,1.66-4.27,2.94-7.05,3.87C844.8,1006.96,841.63,1007.43,838.05,1007.43z M823.46,975.76
							h28.28c0-2.91-0.33-5.36-0.99-7.34c-0.66-1.98-1.61-3.61-2.83-4.86c-1.23-1.26-2.65-2.17-4.27-2.73
							c-1.63-0.56-3.46-0.84-5.51-0.84c-3.05,0-5.63,0.56-7.75,1.69s-3.74,2.85-4.86,5.16
							C824.43,969.15,823.72,972.13,823.46,975.76z"/>
						<linearGradient id="SVGID_3_" gradientUnits="userSpaceOnUse" x1="871.5957" y1="979.5355" x2="914.2711" y2="979.5355">
							<stop  offset="0" style="stop-color:#0F114C"/>
							<stop  offset="1" style="stop-color:#231F20"/>
						</linearGradient>
						<path class="st2" d="M871.6,1006.23v-52.2h7.05l0.8,7.84h0.69c1.39-2.12,2.96-3.84,4.72-5.16c1.76-1.32,3.71-2.3,5.86-2.93
							c2.15-0.63,4.45-0.94,6.9-0.94c3.31,0,6.2,0.57,8.68,1.69c2.49,1.13,4.43,2.94,5.86,5.46c1.42,2.52,2.13,5.92,2.13,10.22
							v36.03h-8.73V971.4c0-2.18-0.28-3.97-0.84-5.36c-0.57-1.39-1.33-2.48-2.28-3.27c-0.96-0.8-2.12-1.35-3.48-1.69
							c-1.35-0.33-2.86-0.5-4.51-0.5c-2.45,0-4.76,0.6-6.95,1.79c-2.18,1.19-3.92,2.91-5.21,5.16c-1.28,2.25-1.93,4.93-1.93,8.04
							v30.67H871.6z"/>
						<linearGradient id="SVGID_4_" gradientUnits="userSpaceOnUse" x1="922.3166" y1="973.4346" x2="947.6179" y2="973.4346">
							<stop  offset="0" style="stop-color:#0F114C"/>
							<stop  offset="1" style="stop-color:#231F20"/>
						</linearGradient>
						<path class="st3" d="M939.68,1007.43c-2.72,0-4.83-0.52-6.35-1.54c-1.52-1.03-2.61-2.38-3.27-4.07
							c-0.66-1.69-0.99-3.49-0.99-5.41v-35.04h-6.75v-7.34h6.94l1.59-14.59h6.94v14.59h9.82v7.34h-9.82v33.74
							c0,1.65,0.3,2.9,0.9,3.72c0.59,0.83,1.72,1.24,3.37,1.24h5.56v5.75c-0.66,0.33-1.46,0.59-2.38,0.8
							c-0.93,0.2-1.87,0.38-2.83,0.55C941.45,1007.34,940.54,1007.43,939.68,1007.43z"/>
						<linearGradient id="SVGID_5_" gradientUnits="userSpaceOnUse" x1="953.9708" y1="980.1318" x2="1000.5194" y2="980.1318">
							<stop  offset="0" style="stop-color:#0F114C"/>
							<stop  offset="1" style="stop-color:#231F20"/>
						</linearGradient>
						<path class="st4" d="M977.79,1007.43c-5.16,0-9.51-0.98-13.05-2.93c-3.53-1.95-6.22-4.95-8.04-8.98s-2.73-9.16-2.73-15.39
							c0-6.28,0.91-11.43,2.73-15.43c1.82-4,4.52-6.98,8.09-8.93c3.57-1.95,8.04-2.93,13.4-2.93c4.9,0,9,0.94,12.3,2.83
							c3.31,1.89,5.8,4.7,7.49,8.44c1.68,3.74,2.53,8.42,2.53,14.04v4.17h-37.51c0.13,4.17,0.74,7.59,1.83,10.27
							s2.73,4.63,4.91,5.86s4.93,1.83,8.23,1.83c2.25,0,4.22-0.28,5.91-0.84c1.68-0.56,3.11-1.37,4.27-2.43s2.03-2.31,2.63-3.77
							c0.59-1.46,0.92-3.04,0.99-4.76h8.53c-0.06,2.78-0.6,5.34-1.59,7.69c-0.99,2.35-2.45,4.35-4.36,6
							c-1.92,1.66-4.27,2.94-7.05,3.87C984.54,1006.96,981.37,1007.43,977.79,1007.43z M963.2,975.76h28.28
							c0-2.91-0.33-5.36-0.99-7.34c-0.66-1.98-1.61-3.61-2.83-4.86c-1.23-1.26-2.65-2.17-4.27-2.73c-1.63-0.56-3.46-0.84-5.51-0.84
							c-3.05,0-5.63,0.56-7.75,1.69c-2.12,1.13-3.74,2.85-4.86,5.16C964.17,969.15,963.46,972.13,963.2,975.76z"/>
						<linearGradient id="SVGID_6_" gradientUnits="userSpaceOnUse" x1="1011.3359" y1="979.5355" x2="1036.2515" y2="979.5355">
							<stop  offset="0" style="stop-color:#0F114C"/>
							<stop  offset="1" style="stop-color:#231F20"/>
						</linearGradient>
						<path class="st5" d="M1011.34,1006.23v-52.2h7.05l0.8,8.64h0.69c0.54-1.65,1.26-3.23,2.19-4.72c0.92-1.49,2.18-2.71,3.77-3.67
							c1.59-0.96,3.53-1.44,5.86-1.44c0.99,0,1.9,0.09,2.72,0.25c0.83,0.17,1.44,0.35,1.84,0.54v8.04h-3.27
							c-2.25,0-4.19,0.38-5.81,1.14c-1.62,0.76-2.96,1.83-4.02,3.22c-1.05,1.39-1.83,3.05-2.33,4.96c-0.5,1.92-0.74,3.97-0.74,6.15
							v29.08H1011.34z"/>
						<linearGradient id="SVGID_7_" gradientUnits="userSpaceOnUse" x1="1057.4908" y1="969.9589" x2="1083.9888" y2="969.9589">
							<stop  offset="0" style="stop-color:#0F114C"/>
							<stop  offset="1" style="stop-color:#231F20"/>
						</linearGradient>
						<path class="st6" d="M1065.23,1006.23v-44.86h-7.74v-7.34h7.74v-8.34c0-2.05,0.3-3.99,0.89-5.81c0.6-1.82,1.72-3.31,3.38-4.47
							c1.65-1.15,3.97-1.74,6.95-1.74c0.92,0,1.83,0.05,2.72,0.15c0.9,0.1,1.76,0.23,2.58,0.4c0.83,0.17,1.57,0.35,2.24,0.55v6.25
							h-5.26c-1.66,0-2.87,0.41-3.63,1.24c-0.76,0.83-1.14,2-1.14,3.52v8.24h10.03v7.34h-10.03v44.86H1065.23z"/>
						<linearGradient id="SVGID_8_" gradientUnits="userSpaceOnUse" x1="1087.5549" y1="980.1318" x2="1136.292" y2="980.1318">
							<stop  offset="0" style="stop-color:#0F114C"/>
							<stop  offset="1" style="stop-color:#231F20"/>
						</linearGradient>
						<path class="st7" d="M1111.97,1007.43c-5.3,0-9.75-0.98-13.35-2.93c-3.61-1.95-6.35-4.95-8.23-8.98
							c-1.89-4.03-2.83-9.16-2.83-15.39c0-6.28,0.94-11.43,2.83-15.43c1.88-4,4.63-6.98,8.23-8.93c3.61-1.95,8.05-2.93,13.35-2.93
							c5.29,0,9.74,0.98,13.35,2.93c3.61,1.95,6.33,4.93,8.19,8.93c1.85,4,2.78,9.15,2.78,15.43c0,6.22-0.93,11.35-2.78,15.39
							c-1.86,4.03-4.58,7.03-8.19,8.98C1121.71,1006.45,1117.26,1007.43,1111.97,1007.43z M1111.97,1000.08
							c3.37,0,6.19-0.66,8.43-1.99c2.25-1.32,3.96-3.39,5.12-6.2c1.16-2.81,1.73-6.36,1.73-10.67v-2.18c0-4.37-0.57-7.94-1.73-10.72
							c-1.16-2.78-2.87-4.83-5.12-6.15c-2.24-1.32-5.06-1.99-8.43-1.99c-3.38,0-6.2,0.67-8.49,1.99c-2.28,1.32-3.99,3.37-5.11,6.15
							c-1.13,2.78-1.69,6.35-1.69,10.72v2.18c0,4.3,0.57,7.86,1.69,10.67c1.12,2.81,2.83,4.88,5.11,6.2
							C1105.77,999.42,1108.6,1000.08,1111.97,1000.08z"/>
						<linearGradient id="SVGID_9_" gradientUnits="userSpaceOnUse" x1="1147.1084" y1="979.5355" x2="1172.0162" y2="979.5355">
							<stop  offset="0" style="stop-color:#0F114C"/>
							<stop  offset="1" style="stop-color:#231F20"/>
						</linearGradient>
						<path class="st8" d="M1147.11,1006.23v-52.2h7.05l0.8,8.64h0.69c0.53-1.65,1.25-3.23,2.18-4.72s2.19-2.71,3.77-3.67
							c1.59-0.96,3.54-1.44,5.86-1.44c0.99,0,1.91,0.09,2.73,0.25c0.83,0.17,1.44,0.35,1.83,0.54v8.04h-3.27
							c-2.25,0-4.19,0.38-5.8,1.14c-1.63,0.76-2.97,1.83-4.02,3.22c-1.06,1.39-1.83,3.05-2.33,4.96c-0.5,1.92-0.75,3.97-0.75,6.15
							v29.08H1147.11z"/>
						<linearGradient id="SVGID_10_" gradientUnits="userSpaceOnUse" x1="1200.6003" y1="972.1927" x2="1259.5555" y2="972.1927">
							<stop  offset="0" style="stop-color:#0F114C"/>
							<stop  offset="1" style="stop-color:#231F20"/>
						</linearGradient>
						<path class="st9" d="M1200.6,1006.23v-68.08h35.83c4.63,0,8.49,0.84,11.56,2.53c3.08,1.68,5.38,4.03,6.9,7.05
							c1.52,3.01,2.28,6.47,2.28,10.37c0,4.7-1.05,8.73-3.17,12.11c-2.12,3.37-5.03,5.79-8.74,7.25l14.3,28.78h-10.32l-13.3-27.1
							h-25.9v27.1H1200.6z M1210.03,971.1h25.51c3.77,0,6.73-1.16,8.88-3.47c2.15-2.32,3.23-5.49,3.23-9.53
							c0-2.52-0.46-4.63-1.39-6.35c-0.92-1.72-2.28-3.06-4.07-4.02c-1.78-0.96-4-1.44-6.64-1.44h-25.51V971.1z"/>
						<linearGradient id="SVGID_11_" gradientUnits="userSpaceOnUse" x1="1267.1917" y1="980.1318" x2="1315.9208" y2="980.1318">
							<stop  offset="0" style="stop-color:#0F114C"/>
							<stop  offset="1" style="stop-color:#231F20"/>
						</linearGradient>
						<path class="st10" d="M1291.6,1007.43c-5.29,0-9.74-0.98-13.34-2.93c-3.61-1.95-6.35-4.95-8.24-8.98
							c-1.88-4.03-2.83-9.16-2.83-15.39c0-6.28,0.94-11.43,2.83-15.43c1.89-4,4.63-6.98,8.24-8.93c3.61-1.95,8.05-2.93,13.34-2.93
							c5.3,0,9.75,0.98,13.35,2.93c3.61,1.95,6.34,4.93,8.19,8.93c1.85,4,2.78,9.15,2.78,15.43c0,6.22-0.93,11.35-2.78,15.39
							s-4.58,7.03-8.19,8.98C1301.35,1006.45,1296.9,1007.43,1291.6,1007.43z M1291.6,1000.08c3.38,0,6.19-0.66,8.44-1.99
							c2.25-1.32,3.95-3.39,5.11-6.2c1.16-2.81,1.74-6.36,1.74-10.67v-2.18c0-4.37-0.58-7.94-1.74-10.72
							c-1.16-2.78-2.86-4.83-5.11-6.15c-2.25-1.32-5.06-1.99-8.44-1.99c-3.37,0-6.2,0.67-8.49,1.99c-2.28,1.32-3.98,3.37-5.11,6.15
							c-1.13,2.78-1.68,6.35-1.68,10.72v2.18c0,4.3,0.56,7.86,1.68,10.67c1.13,2.81,2.83,4.88,5.11,6.2
							C1285.4,999.42,1288.23,1000.08,1291.6,1000.08z"/>
						<linearGradient id="SVGID_12_" gradientUnits="userSpaceOnUse" x1="1326.7372" y1="970.9528" x2="1372.1915" y2="970.9528">
							<stop  offset="0" style="stop-color:#0F114C"/>
							<stop  offset="1" style="stop-color:#231F20"/>
						</linearGradient>
						<path class="st11" d="M1351.55,1007.43c-3.51,0-6.65-0.71-9.43-2.14c-2.78-1.42-5.06-3.59-6.85-6.5h-0.69l-0.89,7.44h-6.95
							v-71.76h8.74v26.1h0.59c1.2-1.85,2.58-3.34,4.17-4.46c1.58-1.13,3.37-1.95,5.36-2.48c1.98-0.53,4.1-0.8,6.34-0.8
							c4.04,0,7.58,0.96,10.62,2.88c3.05,1.92,5.41,4.86,7.1,8.83c1.68,3.97,2.53,9.03,2.53,15.19c0,6.48-0.83,11.76-2.48,15.83
							c-1.65,4.07-4.01,7.07-7.05,8.98C1359.62,1006.47,1355.92,1007.43,1351.55,1007.43z M1349.46,999.78
							c2.98,0,5.48-0.59,7.49-1.79c2.02-1.19,3.56-3.16,4.61-5.9c1.06-2.74,1.59-6.37,1.59-10.87v-2.09c0-4.37-0.5-7.92-1.49-10.67
							c-0.99-2.75-2.52-4.76-4.57-6.05c-2.05-1.29-4.7-1.94-7.94-1.94c-1.85,0-3.61,0.3-5.26,0.89s-3.13,1.62-4.42,3.08
							s-2.28,3.41-2.98,5.85c-0.69,2.45-1.04,5.46-1.04,9.03v1.59c0,4.11,0.47,7.55,1.43,10.32c0.96,2.78,2.49,4.9,4.57,6.35
							C1343.56,999.05,1346.22,999.78,1349.46,999.78z"/>
						<linearGradient id="SVGID_13_" gradientUnits="userSpaceOnUse" x1="1380.0323" y1="980.1318" x2="1428.7693" y2="980.1318">
							<stop  offset="0" style="stop-color:#0F114C"/>
							<stop  offset="1" style="stop-color:#231F20"/>
						</linearGradient>
						<path class="st12" d="M1404.45,1007.43c-5.3,0-9.75-0.98-13.35-2.93c-3.61-1.95-6.35-4.95-8.23-8.98
							c-1.89-4.03-2.83-9.16-2.83-15.39c0-6.28,0.94-11.43,2.83-15.43c1.88-4,4.63-6.98,8.23-8.93c3.61-1.95,8.05-2.93,13.35-2.93
							c5.29,0,9.74,0.98,13.35,2.93c3.61,1.95,6.33,4.93,8.19,8.93c1.85,4,2.78,9.15,2.78,15.43c0,6.22-0.93,11.35-2.78,15.39
							c-1.86,4.03-4.58,7.03-8.19,8.98C1414.19,1006.45,1409.74,1007.43,1404.45,1007.43z M1404.45,1000.08
							c3.37,0,6.19-0.66,8.43-1.99c2.25-1.32,3.96-3.39,5.12-6.2c1.16-2.81,1.73-6.36,1.73-10.67v-2.18c0-4.37-0.57-7.94-1.73-10.72
							c-1.16-2.78-2.87-4.83-5.12-6.15c-2.24-1.32-5.06-1.99-8.43-1.99c-3.38,0-6.2,0.67-8.49,1.99c-2.28,1.32-3.99,3.37-5.11,6.15
							c-1.13,2.78-1.69,6.35-1.69,10.72v2.18c0,4.3,0.57,7.86,1.69,10.67c1.12,2.81,2.83,4.88,5.11,6.2
							C1398.25,999.42,1401.07,1000.08,1404.45,1000.08z"/>
						<linearGradient id="SVGID_14_" gradientUnits="userSpaceOnUse" x1="1434.4216" y1="973.4346" x2="1459.7308" y2="973.4346">
							<stop  offset="0" style="stop-color:#0F114C"/>
							<stop  offset="1" style="stop-color:#231F20"/>
						</linearGradient>
						<path class="st13" d="M1451.79,1007.43c-2.71,0-4.83-0.52-6.35-1.54c-1.52-1.03-2.61-2.38-3.27-4.07s-0.99-3.49-0.99-5.41
							v-35.04h-6.75v-7.34h6.95l1.58-14.59h6.95v14.59h9.82v7.34h-9.82v33.74c0,1.65,0.3,2.9,0.89,3.72
							c0.6,0.83,1.72,1.24,3.38,1.24h5.56v5.75c-0.66,0.33-1.46,0.59-2.39,0.8c-0.92,0.2-1.87,0.38-2.83,0.55
							C1453.56,1007.34,1452.65,1007.43,1451.79,1007.43z"/>
						<linearGradient id="SVGID_15_" gradientUnits="userSpaceOnUse" x1="1469.0594" y1="970.3565" x2="1477.7976" y2="970.3565">
							<stop  offset="0" style="stop-color:#0F114C"/>
							<stop  offset="1" style="stop-color:#231F20"/>
						</linearGradient>
						<path class="st14" d="M1469.06,944.2v-9.73h8.74v9.73H1469.06z M1469.06,1006.23v-52.2h8.74v52.2H1469.06z"/>
						<linearGradient id="SVGID_16_" gradientUnits="userSpaceOnUse" x1="1488.2126" y1="980.1318" x2="1532.376" y2="980.1318">
							<stop  offset="0" style="stop-color:#0F114C"/>
							<stop  offset="1" style="stop-color:#231F20"/>
						</linearGradient>
						<path class="st15" d="M1511.24,1007.43c-5.03,0-9.25-0.98-12.65-2.93c-3.41-1.95-5.99-4.96-7.75-9.03
							c-1.75-4.07-2.63-9.18-2.63-15.34c0-6.15,0.88-11.25,2.63-15.28c1.76-4.04,4.37-7.05,7.84-9.03
							c3.48-1.98,7.76-2.98,12.86-2.98c3.57,0,6.67,0.46,9.28,1.39c2.61,0.92,4.78,2.28,6.49,4.07c1.72,1.79,3,3.94,3.83,6.45
							c0.83,2.52,1.24,5.39,1.24,8.64h-8.83c0-3.04-0.41-5.54-1.24-7.49c-0.83-1.95-2.13-3.4-3.92-4.37
							c-1.79-0.96-4.14-1.44-7.05-1.44c-2.91,0-5.43,0.65-7.54,1.94c-2.13,1.29-3.74,3.33-4.86,6.1c-1.13,2.78-1.69,6.45-1.69,11.01
							v2.09c0,4.3,0.55,7.87,1.65,10.72c1.09,2.85,2.69,4.93,4.81,6.25c2.12,1.32,4.7,1.98,7.74,1.98c2.98,0,5.38-0.53,7.2-1.59
							c1.82-1.05,3.14-2.58,3.98-4.56c0.83-1.99,1.24-4.37,1.24-7.15h8.53c0,2.91-0.41,5.62-1.24,8.14c-0.83,2.52-2.1,4.7-3.83,6.55
							c-1.72,1.85-3.9,3.29-6.55,4.32C1518.12,1006.91,1514.95,1007.43,1511.24,1007.43z"/>
						<linearGradient id="SVGID_17_" gradientUnits="userSpaceOnUse" x1="1539.5239" y1="980.183" x2="1582.6953" y2="980.183">
							<stop  offset="0" style="stop-color:#0F114C"/>
							<stop  offset="1" style="stop-color:#231F20"/>
						</linearGradient>
						<path class="st16" d="M1561.16,1007.43c-3.57,0-6.72-0.37-9.42-1.09c-2.72-0.73-4.97-1.79-6.75-3.18s-3.14-3.04-4.06-4.96
							c-0.93-1.92-1.39-4.1-1.39-6.55v-0.94l0.1-0.74h8.63l-0.09,0.69v0.6c0.06,2.31,0.68,4.13,1.83,5.46
							c1.16,1.33,2.76,2.25,4.82,2.78c2.05,0.53,4.33,0.8,6.84,0.8c2.19,0,4.2-0.28,6.05-0.84c1.86-0.56,3.33-1.42,4.42-2.58
							c1.09-1.16,1.64-2.63,1.64-4.42c0-2.18-0.72-3.85-2.14-5.01c-1.42-1.16-3.29-2.07-5.61-2.73c-2.31-0.66-4.73-1.35-7.24-2.08
							c-2.12-0.59-4.24-1.26-6.35-1.98c-2.12-0.73-4.02-1.62-5.71-2.68s-3.05-2.43-4.07-4.12c-1.02-1.68-1.54-3.82-1.54-6.4
							c0-2.31,0.48-4.37,1.44-6.15c0.95-1.79,2.33-3.31,4.12-4.57s3.95-2.2,6.5-2.83c2.54-0.63,5.37-0.94,8.48-0.94
							c3.31,0,6.2,0.36,8.69,1.09c2.48,0.73,4.54,1.76,6.2,3.08c1.65,1.32,2.87,2.83,3.67,4.51c0.8,1.69,1.19,3.49,1.19,5.41
							c0,0.4,0,0.78,0,1.14c0,0.37-0.03,0.65-0.09,0.84h-8.54v-1.09c0-1.32-0.35-2.59-1.04-3.82c-0.69-1.22-1.88-2.22-3.57-2.98
							c-1.68-0.76-4.01-1.14-7-1.14c-1.91,0-3.57,0.15-4.96,0.45c-1.39,0.3-2.55,0.76-3.47,1.39c-0.93,0.63-1.62,1.36-2.09,2.18
							c-0.46,0.83-0.69,1.77-0.69,2.83c0,1.72,0.56,3.04,1.68,3.97c1.13,0.93,2.63,1.69,4.52,2.28c1.88,0.6,3.92,1.26,6.1,1.99
							c2.31,0.66,4.68,1.34,7.1,2.03c2.41,0.69,4.63,1.57,6.64,2.63c2.02,1.06,3.64,2.5,4.87,4.31c1.22,1.82,1.83,4.22,1.83,7.2
							c0,2.78-0.53,5.19-1.59,7.24c-1.05,2.05-2.56,3.74-4.51,5.06c-1.95,1.33-4.24,2.3-6.85,2.93
							C1567.13,1007.11,1564.27,1007.43,1561.16,1007.43z"/>
						<linearGradient id="SVGID_18_" gradientUnits="userSpaceOnUse" x1="910.1067" y1="1061.1963" x2="939.2891" y2="1061.1963">
							<stop  offset="0" style="stop-color:#0F114C"/>
							<stop  offset="1" style="stop-color:#231F20"/>
						</linearGradient>
						<path class="st17" d="M919.74,1077.06c-1.12,0-2.23-0.14-3.35-0.41c-1.12-0.27-2.16-0.71-3.12-1.33
							c-0.96-0.61-1.72-1.47-2.31-2.57c-0.57-1.09-0.87-2.47-0.87-4.12c0-2.08,0.5-3.79,1.5-5.13c1-1.35,2.39-2.4,4.18-3.14
							c1.79-0.75,3.91-1.27,6.38-1.56c2.46-0.29,5.13-0.43,8.01-0.43v-3.46c0-1.11-0.2-2.07-0.57-2.88
							c-0.39-0.81-1.07-1.43-2.05-1.88c-0.98-0.44-2.38-0.66-4.19-0.66c-1.72,0-3.1,0.22-4.12,0.66c-1.02,0.44-1.73,1.01-2.14,1.7
							c-0.4,0.69-0.6,1.46-0.6,2.31v0.87h-4.9l-0.06-0.58v-0.69c0-1.85,0.5-3.39,1.53-4.64c1.02-1.25,2.45-2.19,4.29-2.83
							c1.85-0.64,3.96-0.95,6.35-0.95c2.54,0,4.67,0.37,6.38,1.09c1.71,0.73,3,1.77,3.87,3.12c0.87,1.35,1.3,2.96,1.3,4.84v16.44
							c0,0.73,0.17,1.24,0.52,1.53c0.35,0.29,0.76,0.43,1.27,0.43h2.24v3.35c-0.54,0.23-1.13,0.43-1.79,0.61
							c-0.65,0.17-1.4,0.26-2.24,0.26c-1,0-1.83-0.2-2.48-0.61c-0.66-0.4-1.16-0.96-1.5-1.67c-0.35-0.71-0.57-1.51-0.69-2.39h-0.4
							c-0.69,0.96-1.57,1.8-2.62,2.51c-1.06,0.71-2.24,1.26-3.55,1.64C922.7,1076.86,921.28,1077.06,919.74,1077.06z
							 M921.01,1072.79c1.23,0,2.39-0.19,3.49-0.57s2.07-0.93,2.91-1.65c0.85-0.71,1.52-1.57,2.02-2.57c0.5-1,0.75-2.09,0.75-3.29
							v-2.54c-3.12,0-5.77,0.17-7.96,0.52c-2.2,0.35-3.87,0.96-5.05,1.85c-1.17,0.89-1.76,2.13-1.76,3.75
							c0,1.04,0.24,1.88,0.69,2.53c0.46,0.65,1.12,1.15,1.96,1.47C918.92,1072.62,919.89,1072.79,921.01,1072.79z"/>
						<linearGradient id="SVGID_19_" gradientUnits="userSpaceOnUse" x1="943.5637" y1="1060.8499" x2="968.3613" y2="1060.8499">
							<stop  offset="0" style="stop-color:#0F114C"/>
							<stop  offset="1" style="stop-color:#231F20"/>
						</linearGradient>
						<path class="st18" d="M943.56,1076.36v-30.34h4.09l0.46,4.55h0.4c0.8-1.23,1.72-2.23,2.74-3c1.02-0.77,2.15-1.33,3.4-1.7
							c1.25-0.37,2.59-0.55,4.01-0.55c1.92,0,3.61,0.33,5.05,0.98c1.44,0.65,2.57,1.71,3.41,3.17c0.83,1.46,1.24,3.44,1.24,5.94
							v20.94h-5.08v-20.24c0-1.27-0.16-2.31-0.49-3.11c-0.32-0.81-0.77-1.44-1.32-1.91c-0.56-0.46-1.24-0.79-2.02-0.98
							c-0.79-0.19-1.66-0.29-2.62-0.29c-1.42,0-2.77,0.35-4.04,1.04c-1.27,0.69-2.28,1.69-3.03,3c-0.75,1.31-1.13,2.87-1.13,4.67
							v17.82H943.56z"/>
						<linearGradient id="SVGID_20_" gradientUnits="userSpaceOnUse" x1="974.297" y1="1055.8608" x2="1000.7713" y2="1055.8608">
							<stop  offset="0" style="stop-color:#0F114C"/>
							<stop  offset="1" style="stop-color:#231F20"/>
						</linearGradient>
						<path class="st19" d="M986.36,1077.06c-2.5,0-4.64-0.56-6.43-1.67c-1.79-1.11-3.17-2.85-4.16-5.22
							c-0.98-2.37-1.47-5.43-1.47-9.2c0-3.58,0.5-6.52,1.5-8.82c1-2.31,2.39-4.02,4.15-5.13c1.77-1.11,3.83-1.67,6.17-1.67
							c1.35,0,2.6,0.15,3.76,0.46c1.15,0.31,2.18,0.79,3.09,1.44c0.9,0.66,1.7,1.52,2.39,2.6h0.35v-15.17h5.07v41.7h-4.09
							l-0.46-4.33h-0.4c-1.04,1.69-2.39,2.95-4.04,3.78C990.12,1076.64,988.32,1077.06,986.36,1077.06z M987.57,1072.62
							c1.92,0,3.48-0.43,4.67-1.27c1.19-0.84,2.06-2.07,2.62-3.69c0.56-1.61,0.84-3.61,0.84-5.99v-0.93c0-2.07-0.21-3.83-0.64-5.25
							c-0.43-1.42-1-2.56-1.73-3.4c-0.73-0.84-1.57-1.44-2.53-1.79c-0.96-0.35-1.98-0.52-3.05-0.52c-1.89,0-3.42,0.37-4.62,1.13
							c-1.19,0.75-2.07,1.92-2.65,3.52c-0.57,1.59-0.87,3.66-0.87,6.2v1.21c0,2.62,0.31,4.72,0.93,6.32
							c0.61,1.59,1.5,2.74,2.68,3.43C984.38,1072.27,985.84,1072.62,987.57,1072.62z"/>
						<linearGradient id="SVGID_21_" gradientUnits="userSpaceOnUse" x1="1037.1647" y1="1354.6671" x2="1037.1647" y2="1032.2411">
							<stop  offset="0.1592" style="stop-color:#EDAAE1"/>
							<stop  offset="0.4997" style="stop-color:#9D61F2"/>
							<stop  offset="0.9924" style="stop-color:#6E008B"/>
						</linearGradient>
						<polygon class="st20" points="1021.77,1076.36 1021.77,1036.8 1052.22,1036.8 1052.22,1041.53 1027.25,1041.53 
							1027.25,1053.76 1049.68,1053.76 1049.68,1058.49 1027.25,1058.49 1027.25,1071.64 1052.56,1071.64 1052.56,1076.36 						"/>
						<linearGradient id="SVGID_22_" gradientUnits="userSpaceOnUse" x1="1080.7966" y1="1354.6671" x2="1080.7966" y2="1032.2411">
							<stop  offset="0.1592" style="stop-color:#EDAAE1"/>
							<stop  offset="0.4997" style="stop-color:#9D61F2"/>
							<stop  offset="0.9924" style="stop-color:#6E008B"/>
						</linearGradient>
						<path class="st21" d="M1059.83,1076.36v-30.34h4.09l0.46,4.55h0.4c0.77-1.23,1.64-2.23,2.6-3c0.96-0.77,2.02-1.33,3.17-1.7
							c1.15-0.37,2.4-0.55,3.75-0.55c1.96,0,3.65,0.39,5.08,1.18c1.42,0.79,2.48,2.15,3.17,4.07h0.35c0.73-1.23,1.57-2.22,2.53-2.97
							c0.96-0.75,2.04-1.32,3.23-1.7c1.2-0.38,2.46-0.57,3.81-0.57c1.84,0,3.46,0.31,4.84,0.95c1.39,0.63,2.47,1.67,3.26,3.11
							c0.79,1.44,1.19,3.37,1.19,5.8v21.16h-5.08v-20.36c0-1.23-0.15-2.25-0.43-3.06c-0.29-0.81-0.7-1.43-1.24-1.87
							c-0.54-0.44-1.16-0.76-1.87-0.95c-0.71-0.19-1.47-0.29-2.28-0.29c-1.35,0-2.59,0.35-3.72,1.04c-1.13,0.69-2.05,1.69-2.74,3
							c-0.69,1.31-1.04,2.87-1.04,4.67v17.82h-5.07v-20.36c0-1.23-0.16-2.25-0.46-3.06s-0.71-1.43-1.21-1.87
							c-0.5-0.44-1.1-0.76-1.82-0.95c-0.71-0.19-1.45-0.29-2.22-0.29c-1.38,0-2.66,0.35-3.83,1.04c-1.17,0.69-2.1,1.69-2.79,3
							c-0.69,1.31-1.04,2.87-1.04,4.67v17.82H1059.83z"/>
						<linearGradient id="SVGID_23_" gradientUnits="userSpaceOnUse" x1="1122.6376" y1="1354.6671" x2="1122.6376" y2="1032.2411">
							<stop  offset="0.1592" style="stop-color:#EDAAE1"/>
							<stop  offset="0.4997" style="stop-color:#9D61F2"/>
							<stop  offset="0.9924" style="stop-color:#6E008B"/>
						</linearGradient>
						<path class="st22" d="M1123.85,1077.06c-2.04,0-3.87-0.41-5.48-1.24c-1.61-0.83-2.94-2.09-3.98-3.78h-0.4l-0.52,4.33h-4.04
							v-41.7h5.07v15.17h0.35c0.69-1.08,1.5-1.94,2.42-2.6c0.92-0.65,1.96-1.13,3.12-1.44c1.15-0.31,2.39-0.46,3.69-0.46
							c2.35,0,4.4,0.56,6.17,1.67c1.76,1.11,3.14,2.83,4.12,5.13c0.98,2.31,1.47,5.25,1.47,8.82c0,3.77-0.48,6.83-1.44,9.2
							c-0.96,2.37-2.33,4.11-4.09,5.22C1128.54,1076.5,1126.39,1077.06,1123.85,1077.06z M1122.63,1072.62
							c1.73,0,3.19-0.35,4.36-1.04s2.06-1.84,2.68-3.43s0.93-3.7,0.93-6.32v-1.21c0-2.54-0.29-4.61-0.87-6.2
							c-0.58-1.6-1.46-2.77-2.65-3.52c-1.2-0.75-2.73-1.13-4.61-1.13c-1.08,0-2.1,0.17-3.06,0.52c-0.96,0.35-1.82,0.94-2.57,1.79
							c-0.75,0.85-1.32,1.98-1.73,3.4c-0.4,1.42-0.61,3.17-0.61,5.25v0.93c0,2.38,0.28,4.38,0.84,5.99
							c0.55,1.62,1.44,2.85,2.65,3.69C1119.21,1072.19,1120.75,1072.62,1122.63,1072.62z"/>
						<linearGradient id="SVGID_24_" gradientUnits="userSpaceOnUse" x1="1154.5594" y1="1354.6671" x2="1154.5594" y2="1032.2411">
							<stop  offset="0.1592" style="stop-color:#EDAAE1"/>
							<stop  offset="0.4997" style="stop-color:#9D61F2"/>
							<stop  offset="0.9924" style="stop-color:#6E008B"/>
						</linearGradient>
						<path class="st23" d="M1154.59,1077.06c-3.08,0-5.66-0.57-7.75-1.7c-2.09-1.14-3.69-2.88-4.79-5.22
							c-1.09-2.34-1.65-5.32-1.65-8.94c0-3.65,0.55-6.64,1.65-8.97c1.09-2.33,2.69-4.06,4.79-5.19c2.09-1.13,4.68-1.7,7.75-1.7
							s5.66,0.57,7.76,1.7c2.09,1.13,3.68,2.87,4.75,5.19c1.08,2.33,1.61,5.31,1.61,8.97c0,3.62-0.54,6.6-1.61,8.94
							c-1.08,2.35-2.66,4.09-4.75,5.22C1160.25,1076.49,1157.67,1077.06,1154.59,1077.06z M1154.59,1072.79
							c1.96,0,3.6-0.38,4.9-1.15c1.31-0.77,2.3-1.97,2.97-3.61c0.68-1.63,1.02-3.7,1.02-6.2v-1.27c0-2.53-0.34-4.61-1.02-6.23
							c-0.67-1.62-1.66-2.81-2.97-3.58c-1.31-0.77-2.94-1.15-4.9-1.15s-3.61,0.39-4.93,1.15c-1.33,0.77-2.31,1.96-2.97,3.58
							c-0.66,1.61-0.98,3.69-0.98,6.23v1.27c0,2.5,0.32,4.57,0.98,6.2c0.65,1.63,1.64,2.83,2.97,3.61
							C1150.98,1072.4,1152.63,1072.79,1154.59,1072.79z"/>
						<linearGradient id="SVGID_25_" gradientUnits="userSpaceOnUse" x1="1186.5129" y1="1354.6671" x2="1186.5129" y2="1032.2411">
							<stop  offset="0.1592" style="stop-color:#EDAAE1"/>
							<stop  offset="0.4997" style="stop-color:#9D61F2"/>
							<stop  offset="0.9924" style="stop-color:#6E008B"/>
						</linearGradient>
						<path class="st24" d="M1185.33,1077.06c-2.5,0-4.64-0.56-6.43-1.67s-3.17-2.85-4.15-5.22c-0.98-2.37-1.47-5.43-1.47-9.2
							c0-3.58,0.5-6.52,1.5-8.82c1-2.31,2.39-4.02,4.16-5.13c1.77-1.11,3.83-1.67,6.17-1.67c1.35,0,2.6,0.15,3.75,0.46
							c1.16,0.31,2.18,0.79,3.09,1.44c0.91,0.66,1.7,1.52,2.39,2.6h0.35v-15.17h5.08v41.7h-4.09l-0.46-4.33h-0.4
							c-1.04,1.69-2.39,2.95-4.04,3.78C1189.1,1076.64,1187.29,1077.06,1185.33,1077.06z M1186.54,1072.62
							c1.92,0,3.48-0.43,4.67-1.27c1.2-0.84,2.07-2.07,2.63-3.69c0.56-1.61,0.83-3.61,0.83-5.99v-0.93c0-2.07-0.21-3.83-0.64-5.25
							c-0.42-1.42-1-2.56-1.72-3.4c-0.73-0.84-1.58-1.44-2.54-1.79c-0.96-0.35-1.98-0.52-3.05-0.52c-1.88,0-3.42,0.37-4.61,1.13
							c-1.2,0.75-2.08,1.92-2.65,3.52c-0.57,1.59-0.87,3.66-0.87,6.2v1.21c0,2.62,0.31,4.72,0.92,6.32s1.51,2.74,2.68,3.43
							S1184.81,1072.62,1186.54,1072.62z"/>
						<linearGradient id="SVGID_26_" gradientUnits="userSpaceOnUse" x1="1210.2399" y1="1354.6671" x2="1210.2399" y2="1032.2411">
							<stop  offset="0.1592" style="stop-color:#EDAAE1"/>
							<stop  offset="0.4997" style="stop-color:#9D61F2"/>
							<stop  offset="0.9924" style="stop-color:#6E008B"/>
						</linearGradient>
						<path class="st25" d="M1207.7,1040.32v-5.65h5.08v5.65H1207.7z M1207.7,1076.36v-30.34h5.08v30.34H1207.7z"/>
						<linearGradient id="SVGID_27_" gradientUnits="userSpaceOnUse" x1="1232.475" y1="1354.6671" x2="1232.475" y2="1032.2411">
							<stop  offset="0.1592" style="stop-color:#EDAAE1"/>
							<stop  offset="0.4997" style="stop-color:#9D61F2"/>
							<stop  offset="0.9924" style="stop-color:#6E008B"/>
						</linearGradient>
						<path class="st26" d="M1232.79,1077.06c-3,0-5.53-0.57-7.58-1.7c-2.05-1.14-3.61-2.88-4.68-5.22
							c-1.05-2.34-1.58-5.32-1.58-8.94c0-3.65,0.53-6.64,1.58-8.97c1.06-2.33,2.63-4.06,4.71-5.19c2.07-1.13,4.67-1.7,7.79-1.7
							c2.84,0,5.23,0.55,7.15,1.65c1.92,1.09,3.38,2.73,4.35,4.9c0.98,2.17,1.47,4.89,1.47,8.16v2.42h-21.8
							c0.07,2.42,0.43,4.41,1.06,5.97c0.64,1.56,1.59,2.69,2.86,3.4c1.27,0.71,2.87,1.07,4.79,1.07c1.31,0,2.45-0.17,3.43-0.49
							c0.98-0.33,1.8-0.8,2.48-1.41c0.67-0.61,1.18-1.35,1.53-2.19c0.35-0.85,0.54-1.77,0.57-2.77h4.96
							c-0.04,1.61-0.35,3.11-0.92,4.47c-0.57,1.37-1.42,2.53-2.53,3.49c-1.12,0.96-2.48,1.71-4.09,2.25
							C1236.71,1076.79,1234.87,1077.06,1232.79,1077.06z M1224.31,1058.66h16.44c0-1.69-0.19-3.12-0.57-4.27
							c-0.39-1.15-0.93-2.09-1.65-2.83c-0.71-0.73-1.54-1.26-2.48-1.59c-0.94-0.33-2.01-0.49-3.2-0.49c-1.77,0-3.27,0.33-4.5,0.98
							c-1.23,0.65-2.17,1.65-2.83,3C1224.87,1054.81,1224.47,1056.55,1224.31,1058.66z"/>
						<linearGradient id="SVGID_28_" gradientUnits="userSpaceOnUse" x1="1263.7947" y1="1354.6671" x2="1263.7947" y2="1032.2411">
							<stop  offset="0.1592" style="stop-color:#EDAAE1"/>
							<stop  offset="0.4997" style="stop-color:#9D61F2"/>
							<stop  offset="0.9924" style="stop-color:#6E008B"/>
						</linearGradient>
						<path class="st27" d="M1262.61,1077.06c-2.5,0-4.64-0.56-6.43-1.67s-3.17-2.85-4.15-5.22c-0.98-2.37-1.47-5.43-1.47-9.2
							c0-3.58,0.5-6.52,1.5-8.82c1-2.31,2.39-4.02,4.16-5.13c1.77-1.11,3.83-1.67,6.17-1.67c1.35,0,2.6,0.15,3.75,0.46
							c1.16,0.31,2.18,0.79,3.09,1.44c0.91,0.66,1.7,1.52,2.39,2.6h0.35v-15.17h5.08v41.7h-4.09l-0.46-4.33h-0.4
							c-1.04,1.69-2.39,2.95-4.04,3.78C1266.38,1076.64,1264.57,1077.06,1262.61,1077.06z M1263.82,1072.62
							c1.92,0,3.48-0.43,4.67-1.27c1.2-0.84,2.07-2.07,2.63-3.69c0.56-1.61,0.83-3.61,0.83-5.99v-0.93c0-2.07-0.21-3.83-0.64-5.25
							c-0.42-1.42-1-2.56-1.72-3.4c-0.73-0.84-1.58-1.44-2.54-1.79c-0.96-0.35-1.98-0.52-3.05-0.52c-1.88,0-3.42,0.37-4.61,1.13
							c-1.2,0.75-2.08,1.92-2.65,3.52c-0.57,1.59-0.87,3.66-0.87,6.2v1.21c0,2.62,0.31,4.72,0.92,6.32
							c0.61,1.59,1.51,2.74,2.68,3.43S1262.09,1072.62,1263.82,1072.62z"/>
						<linearGradient id="SVGID_29_" gradientUnits="userSpaceOnUse" x1="1300.7588" y1="1354.6671" x2="1300.7588" y2="1032.2411">
							<stop  offset="0.1592" style="stop-color:#EDAAE1"/>
							<stop  offset="0.4997" style="stop-color:#9D61F2"/>
							<stop  offset="0.9924" style="stop-color:#6E008B"/>
						</linearGradient>
						<rect x="1298.02" y="1036.8" class="st28" width="5.48" height="39.57"/>
						<linearGradient id="SVGID_30_" gradientUnits="userSpaceOnUse" x1="1324.84" y1="1354.6671" x2="1324.84" y2="1032.2411">
							<stop  offset="0.1592" style="stop-color:#EDAAE1"/>
							<stop  offset="0.4997" style="stop-color:#9D61F2"/>
							<stop  offset="0.9924" style="stop-color:#6E008B"/>
						</linearGradient>
						<path class="st29" d="M1312.44,1076.36v-30.34h4.09l0.46,4.55h0.4c0.8-1.23,1.72-2.23,2.74-3c1.02-0.77,2.15-1.33,3.4-1.7
							c1.25-0.37,2.59-0.55,4.01-0.55c1.92,0,3.61,0.33,5.05,0.98c1.44,0.65,2.57,1.71,3.41,3.17c0.83,1.46,1.24,3.44,1.24,5.94
							v20.94h-5.08v-20.24c0-1.27-0.16-2.31-0.49-3.11c-0.32-0.81-0.77-1.44-1.32-1.91c-0.56-0.46-1.24-0.79-2.02-0.98
							s-1.66-0.29-2.62-0.29c-1.42,0-2.77,0.35-4.04,1.04c-1.27,0.69-2.28,1.69-3.03,3c-0.75,1.31-1.13,2.87-1.13,4.67v17.82
							H1312.44z"/>
						<linearGradient id="SVGID_31_" gradientUnits="userSpaceOnUse" x1="1349.2637" y1="1354.6671" x2="1349.2637" y2="1032.2411">
							<stop  offset="0.1592" style="stop-color:#EDAAE1"/>
							<stop  offset="0.4997" style="stop-color:#9D61F2"/>
							<stop  offset="0.9924" style="stop-color:#6E008B"/>
						</linearGradient>
						<path class="st30" d="M1352,1077.06c-1.57,0-2.8-0.3-3.68-0.89c-0.89-0.6-1.52-1.39-1.91-2.37s-0.58-2.03-0.58-3.14v-20.36
							h-3.92v-4.27h4.04l0.92-8.48h4.04v8.48h5.72v4.27h-5.72v19.61c0,0.96,0.17,1.68,0.52,2.16c0.35,0.48,1,0.72,1.96,0.72h3.24
							v3.35c-0.39,0.19-0.85,0.35-1.39,0.46c-0.54,0.11-1.09,0.22-1.65,0.31C1353.03,1077.01,1352.5,1077.06,1352,1077.06z"/>
						<linearGradient id="SVGID_32_" gradientUnits="userSpaceOnUse" x1="1373.8329" y1="1354.6671" x2="1373.8329" y2="1032.2411">
							<stop  offset="0.1592" style="stop-color:#EDAAE1"/>
							<stop  offset="0.4997" style="stop-color:#9D61F2"/>
							<stop  offset="0.9924" style="stop-color:#6E008B"/>
						</linearGradient>
						<path class="st31" d="M1374.15,1077.06c-3,0-5.53-0.57-7.59-1.7c-2.05-1.14-3.61-2.88-4.67-5.22
							c-1.05-2.34-1.59-5.32-1.59-8.94c0-3.65,0.54-6.64,1.59-8.97c1.05-2.33,2.62-4.06,4.7-5.19c2.08-1.13,4.67-1.7,7.79-1.7
							c2.84,0,5.23,0.55,7.16,1.65c1.92,1.09,3.37,2.73,4.35,4.9c0.98,2.17,1.47,4.89,1.47,8.16v2.42h-21.81
							c0.08,2.42,0.43,4.41,1.07,5.97c0.63,1.56,1.58,2.69,2.85,3.4c1.28,0.71,2.87,1.07,4.79,1.07c1.31,0,2.46-0.17,3.43-0.49
							c0.98-0.33,1.81-0.8,2.48-1.41c0.68-0.61,1.19-1.35,1.54-2.19c0.35-0.85,0.54-1.77,0.57-2.77h4.96
							c-0.04,1.61-0.35,3.11-0.92,4.47c-0.58,1.37-1.42,2.53-2.54,3.49c-1.11,0.96-2.48,1.71-4.09,2.25
							C1378.07,1076.79,1376.23,1077.06,1374.15,1077.06z M1365.67,1058.66h16.44c0-1.69-0.2-3.12-0.57-4.27
							c-0.39-1.15-0.94-2.09-1.65-2.83c-0.72-0.73-1.54-1.26-2.48-1.59c-0.94-0.33-2.02-0.49-3.2-0.49c-1.77,0-3.27,0.33-4.49,0.98
							c-1.24,0.65-2.17,1.65-2.83,3C1366.23,1054.81,1365.82,1056.55,1365.67,1058.66z"/>
						<linearGradient id="SVGID_33_" gradientUnits="userSpaceOnUse" x1="1396.1823" y1="1354.6671" x2="1396.1823" y2="1032.2411">
							<stop  offset="0.1592" style="stop-color:#EDAAE1"/>
							<stop  offset="0.4997" style="stop-color:#9D61F2"/>
							<stop  offset="0.9924" style="stop-color:#6E008B"/>
						</linearGradient>
						<rect x="1393.64" y="1034.66" class="st32" width="5.08" height="41.7"/>
						<linearGradient id="SVGID_34_" gradientUnits="userSpaceOnUse" x1="1409.1556" y1="1354.6671" x2="1409.1556" y2="1032.2411">
							<stop  offset="0.1592" style="stop-color:#EDAAE1"/>
							<stop  offset="0.4997" style="stop-color:#9D61F2"/>
							<stop  offset="0.9924" style="stop-color:#6E008B"/>
						</linearGradient>
						<rect x="1406.62" y="1034.66" class="st33" width="5.08" height="41.7"/>
						<linearGradient id="SVGID_35_" gradientUnits="userSpaceOnUse" x1="1422.1331" y1="1354.6671" x2="1422.1331" y2="1032.2411">
							<stop  offset="0.1592" style="stop-color:#EDAAE1"/>
							<stop  offset="0.4997" style="stop-color:#9D61F2"/>
							<stop  offset="0.9924" style="stop-color:#6E008B"/>
						</linearGradient>
						<path class="st34" d="M1419.6,1040.32v-5.65h5.07v5.65H1419.6z M1419.6,1076.36v-30.34h5.07v30.34H1419.6z"/>
						<linearGradient id="SVGID_36_" gradientUnits="userSpaceOnUse" x1="1444.9192" y1="1354.6671" x2="1444.9192" y2="1032.2411">
							<stop  offset="0.1592" style="stop-color:#EDAAE1"/>
							<stop  offset="0.4997" style="stop-color:#9D61F2"/>
							<stop  offset="0.9924" style="stop-color:#6E008B"/>
						</linearGradient>
						<path class="st35" d="M1437.7,1086.86c-1.46,0-2.8-0.3-4.04-0.89c-1.23-0.6-2.2-1.45-2.94-2.57
							c-0.73-1.12-1.09-2.44-1.09-3.98c0-1.69,0.46-3.1,1.41-4.21s2.07-1.94,3.38-2.48c-0.96-0.46-1.72-1.11-2.25-1.93
							c-0.54-0.83-0.81-1.74-0.81-2.74c0-1.35,0.5-2.48,1.47-3.4c0.98-0.92,2.18-1.54,3.61-1.84c-1.31-0.85-2.34-1.93-3.09-3.26
							c-0.75-1.33-1.13-2.8-1.13-4.41c0-1.92,0.46-3.61,1.35-5.08c0.91-1.46,2.29-2.61,4.16-3.46c1.87-0.84,4.14-1.27,6.83-1.27
							c1.23,0,2.39,0.09,3.46,0.26c1.07,0.17,2.04,0.45,2.88,0.83c1.35-0.61,2.35-1.4,3.03-2.36c0.67-0.96,1.09-1.94,1.24-2.94h5.02
							c0,1.15-0.26,2.24-0.78,3.26c-0.52,1.02-1.22,1.87-2.11,2.54c-0.88,0.67-1.96,1.12-3.23,1.35c0.96,0.92,1.68,1.96,2.16,3.11
							c0.48,1.16,0.72,2.41,0.72,3.75c0,1.92-0.45,3.63-1.35,5.11c-0.91,1.48-2.26,2.64-4.06,3.49c-1.81,0.85-4.08,1.27-6.81,1.27
							h-4.73c-1.04,0-1.88,0.2-2.53,0.61c-0.65,0.41-0.98,1.05-0.98,1.93c0,0.77,0.33,1.39,0.98,1.87c0.65,0.48,1.5,0.72,2.53,0.72
							h12.34c2.23,0,4.05,0.74,5.48,2.22c1.42,1.48,2.13,3.37,2.13,5.68c0,1.65-0.41,3.14-1.24,4.47c-0.83,1.32-1.98,2.38-3.46,3.17
							c-1.48,0.79-3.2,1.18-5.16,1.18H1437.7z M1439.15,1083h10.9c0.88,0,1.69-0.18,2.42-0.55c0.73-0.37,1.31-0.88,1.73-1.53
							c0.42-0.65,0.63-1.36,0.63-2.13c0-1.31-0.39-2.35-1.15-3.11c-0.77-0.77-1.73-1.15-2.89-1.15h-11.65
							c-1.23,0-2.27,0.41-3.11,1.24c-0.85,0.83-1.27,1.84-1.27,3.03c0,1.27,0.42,2.29,1.27,3.06
							C1436.88,1082.61,1437.92,1083,1439.15,1083z M1444.62,1061.19c2.46,0,4.29-0.54,5.48-1.61c1.2-1.07,1.79-2.55,1.79-4.44
							c0-1.85-0.6-3.31-1.79-4.38c-1.19-1.07-3.02-1.61-5.48-1.61c-2.46,0-4.29,0.54-5.5,1.61c-1.21,1.08-1.82,2.54-1.82,4.38
							c0,1.19,0.27,2.25,0.81,3.17c0.54,0.92,1.35,1.63,2.42,2.13C1441.61,1060.95,1442.97,1061.19,1444.62,1061.19z"/>
						<linearGradient id="SVGID_37_" gradientUnits="userSpaceOnUse" x1="1476.4358" y1="1354.6671" x2="1476.4358" y2="1032.2411">
							<stop  offset="0.1592" style="stop-color:#EDAAE1"/>
							<stop  offset="0.4997" style="stop-color:#9D61F2"/>
							<stop  offset="0.9924" style="stop-color:#6E008B"/>
						</linearGradient>
						<path class="st36" d="M1476.75,1077.06c-3,0-5.53-0.57-7.58-1.7c-2.05-1.14-3.61-2.88-4.68-5.22
							c-1.05-2.34-1.58-5.32-1.58-8.94c0-3.65,0.53-6.64,1.58-8.97c1.06-2.33,2.63-4.06,4.71-5.19c2.07-1.13,4.67-1.7,7.79-1.7
							c2.84,0,5.23,0.55,7.15,1.65c1.92,1.09,3.38,2.73,4.35,4.9c0.98,2.17,1.47,4.89,1.47,8.16v2.42h-21.8
							c0.07,2.42,0.43,4.41,1.06,5.97c0.64,1.56,1.59,2.69,2.86,3.4c1.27,0.71,2.87,1.07,4.79,1.07c1.31,0,2.45-0.17,3.43-0.49
							c0.98-0.33,1.8-0.8,2.48-1.41c0.67-0.61,1.18-1.35,1.53-2.19c0.35-0.85,0.54-1.77,0.57-2.77h4.96
							c-0.04,1.61-0.35,3.11-0.92,4.47s-1.42,2.53-2.53,3.49c-1.12,0.96-2.48,1.71-4.09,2.25
							C1480.67,1076.79,1478.83,1077.06,1476.75,1077.06z M1468.27,1058.66h16.44c0-1.69-0.19-3.12-0.57-4.27
							c-0.39-1.15-0.93-2.09-1.65-2.83c-0.71-0.73-1.54-1.26-2.48-1.59c-0.94-0.33-2.01-0.49-3.2-0.49c-1.77,0-3.27,0.33-4.5,0.98
							c-1.23,0.65-2.17,1.65-2.83,3C1468.83,1054.81,1468.43,1056.55,1468.27,1058.66z"/>
						<linearGradient id="SVGID_38_" gradientUnits="userSpaceOnUse" x1="1508.645" y1="1354.6671" x2="1508.645" y2="1032.2411">
							<stop  offset="0.1592" style="stop-color:#EDAAE1"/>
							<stop  offset="0.4997" style="stop-color:#9D61F2"/>
							<stop  offset="0.9924" style="stop-color:#6E008B"/>
						</linearGradient>
						<path class="st37" d="M1496.24,1076.36v-30.34h4.09l0.46,4.55h0.4c0.81-1.23,1.72-2.23,2.74-3c1.02-0.77,2.16-1.33,3.41-1.7
							c1.24-0.37,2.58-0.55,4.01-0.55c1.92,0,3.61,0.33,5.05,0.98c1.44,0.65,2.57,1.71,3.4,3.17s1.24,3.44,1.24,5.94v20.94h-5.08
							v-20.24c0-1.27-0.17-2.31-0.49-3.11c-0.33-0.81-0.77-1.44-1.33-1.91c-0.56-0.46-1.23-0.79-2.02-0.98s-1.67-0.29-2.63-0.29
							c-1.42,0-2.76,0.35-4.04,1.04c-1.27,0.69-2.28,1.69-3.02,3c-0.75,1.31-1.13,2.87-1.13,4.67v17.82H1496.24z"/>
						<linearGradient id="SVGID_39_" gradientUnits="userSpaceOnUse" x1="1539.701" y1="1354.6671" x2="1539.701" y2="1032.2411">
							<stop  offset="0.1592" style="stop-color:#EDAAE1"/>
							<stop  offset="0.4997" style="stop-color:#9D61F2"/>
							<stop  offset="0.9924" style="stop-color:#6E008B"/>
						</linearGradient>
						<path class="st38" d="M1540.25,1077.06c-2.92,0-5.38-0.57-7.35-1.7c-1.98-1.14-3.48-2.89-4.5-5.25
							c-1.02-2.37-1.53-5.33-1.53-8.91c0-3.57,0.51-6.53,1.53-8.88c1.02-2.35,2.54-4.1,4.56-5.25c2.02-1.16,4.51-1.73,7.47-1.73
							c2.08,0,3.87,0.27,5.39,0.81c1.52,0.54,2.78,1.33,3.78,2.37s1.74,2.29,2.22,3.75c0.48,1.46,0.72,3.13,0.72,5.02h-5.14
							c0-1.77-0.24-3.22-0.72-4.35c-0.48-1.13-1.24-1.98-2.28-2.54c-1.04-0.56-2.41-0.83-4.1-0.83c-1.69,0-3.15,0.37-4.38,1.12
							c-1.24,0.75-2.17,1.93-2.83,3.55c-0.66,1.62-0.98,3.75-0.98,6.4v1.21c0,2.5,0.31,4.58,0.95,6.23
							c0.63,1.65,1.57,2.87,2.79,3.63c1.23,0.77,2.73,1.15,4.5,1.15c1.72,0,3.12-0.31,4.18-0.92c1.05-0.61,1.83-1.5,2.31-2.65
							c0.48-1.15,0.72-2.54,0.72-4.15h4.97c0,1.69-0.24,3.27-0.72,4.73c-0.48,1.46-1.22,2.73-2.22,3.81c-1,1.08-2.27,1.91-3.81,2.51
							C1544.25,1076.76,1542.41,1077.06,1540.25,1077.06z"/>
						<linearGradient id="SVGID_40_" gradientUnits="userSpaceOnUse" x1="1570.4421" y1="1354.6671" x2="1570.4421" y2="1032.2411">
							<stop  offset="0.1592" style="stop-color:#EDAAE1"/>
							<stop  offset="0.4997" style="stop-color:#9D61F2"/>
							<stop  offset="0.9924" style="stop-color:#6E008B"/>
						</linearGradient>
						<path class="st39" d="M1570.76,1077.06c-3,0-5.53-0.57-7.59-1.7c-2.05-1.14-3.61-2.88-4.67-5.22
							c-1.05-2.34-1.59-5.32-1.59-8.94c0-3.65,0.54-6.64,1.59-8.97c1.05-2.33,2.62-4.06,4.7-5.19c2.08-1.13,4.67-1.7,7.79-1.7
							c2.84,0,5.23,0.55,7.16,1.65c1.92,1.09,3.37,2.73,4.35,4.9c0.98,2.17,1.47,4.89,1.47,8.16v2.42h-21.81
							c0.08,2.42,0.43,4.41,1.07,5.97c0.63,1.56,1.58,2.69,2.85,3.4c1.28,0.71,2.87,1.07,4.79,1.07c1.31,0,2.46-0.17,3.43-0.49
							c0.98-0.33,1.81-0.8,2.48-1.41c0.68-0.61,1.19-1.35,1.54-2.19c0.35-0.85,0.54-1.77,0.57-2.77h4.96
							c-0.04,1.61-0.35,3.11-0.92,4.47c-0.58,1.37-1.42,2.53-2.54,3.49c-1.11,0.96-2.48,1.71-4.09,2.25
							C1574.68,1076.79,1572.84,1077.06,1570.76,1077.06z M1562.28,1058.66h16.44c0-1.69-0.2-3.12-0.57-4.27
							c-0.39-1.15-0.94-2.09-1.65-2.83c-0.72-0.73-1.54-1.26-2.48-1.59c-0.94-0.33-2.02-0.49-3.2-0.49c-1.77,0-3.27,0.33-4.49,0.98
							c-1.24,0.65-2.17,1.65-2.83,3C1562.84,1054.81,1562.43,1056.55,1562.28,1058.66z"/>
						<linearGradient id="SVGID_41_" gradientUnits="userSpaceOnUse" x1="743.1758" y1="1060.4386" x2="884.8801" y2="1060.4386">
							<stop  offset="0" style="stop-color:#0F114C"/>
							<stop  offset="1" style="stop-color:#231F20"/>
						</linearGradient>
						<polyline class="st40" points="884.88,1058.93 743.18,1058.93 743.18,1061.95 884.88,1061.95 						"/>
					</g>
				</g>
			</g>
		</g>
		<g>
			<g>
				<g>
					<linearGradient id="SVGID_42_" gradientUnits="userSpaceOnUse" x1="754.7614" y1="1264.4086" x2="492.2437" y2="926.7837">
						<stop  offset="0.1592" style="stop-color:#EDAAE1"/>
						<stop  offset="0.4997" style="stop-color:#9D61F2"/>
						<stop  offset="0.9924" style="stop-color:#6E008B"/>
					</linearGradient>
					<path class="st41" d="M652.79,1079.56c16.9-22.01,27-49.58,27-79.5c0-72.08-58.46-130.54-130.54-130.54
						c-72.11,0-130.57,58.46-130.57,130.54c0,72.11,58.46,130.57,130.57,130.57c21.98,0,42.71-5.44,60.89-15.08l1.55-0.88
						l-31.34-29.06c4.68,3.68,11.16,4.35,16.42,1.58c0.46-0.24,0.91-0.49,1.31-0.79l24.75,21.49c0.79-0.52,1.58-1.06,2.37-1.64
						l4.96-4.07l-26.39-22.92c1.28-3.28,1.46-6.99,0.27-10.55c3.44,1.52,7.14,1.85,10.49,1.09l26.57,23.04
						c1.28-1.25,2.49-2.52,3.71-3.83l2.46-2.89l-24.69-21.43c2.74-3.68,2.89-7.87,2.92-8.97L652.79,1079.56z M592.33,1051.69
						c0.88,0.91,1.46,2.16,1.46,3.56c0,1.37-0.58,2.61-1.46,3.53c-0.91,0.91-2.16,1.49-3.56,1.49c-1.37,0-2.64-0.58-3.53-1.49
						c-0.91-0.91-1.49-2.16-1.49-3.53c0-1.4,0.58-2.65,1.49-3.56c0.88-0.91,2.16-1.46,3.53-1.46
						C590.17,1050.23,591.41,1050.77,592.33,1051.69z M585.7,907.35c-0.36,22.01-10.12,54.66-45.27,50.31
						C540.43,927.04,578.8,927.77,585.7,907.35z M560.89,1016.24l-4.26,1.28c-4.38-3.13-9.09-5.72-14.05-7.78
						c2.65-3.34,3.28-7.63,3.16-12.31c4.41,2.92,10.28,5.29,16.66,7.48C559.83,1006.03,553.99,1012.65,560.89,1016.24z
						 M536.08,1052.9c-0.4-0.79-0.61-1.64-0.61-2.55c0-0.91,0.21-1.76,0.61-2.58c0.58-1.19,1.58-2.28,2.92-3.04l0.15-0.09
						c0.39-0.21,0.85-0.33,1.31-0.33h9.48c3.04,0,5.68,2.28,5.87,5.32c0.12,1.73-0.55,3.31-1.67,4.44
						c-1.03,1.03-2.46,1.67-4.04,1.67h-10.55c-0.64,0-1.28-0.21-1.76-0.61v-0.03C537.06,1054.45,536.45,1053.72,536.08,1052.9z
						 M531.98,1054.91c0.12,0.27,0.3,0.58,0.46,0.82h-9.58c-0.94,0-1.88-0.3-2.64-0.88c-0.15-0.15-0.3-0.27-0.46-0.43
						c-1.09-1.09-1.76-2.58-1.76-4.29c0-1.67,0.67-3.16,1.76-4.26c0.58-0.55,1.22-1,1.95-1.31c0.49-0.18,1-0.27,1.52-0.27h9.64
						c-0.33,0.46-0.64,0.97-0.88,1.49c-0.67,1.37-1.06,2.95-1.06,4.56C530.92,1051.96,531.31,1053.51,531.98,1054.91z
						 M531.98,1038.8c0.12,0.3,0.3,0.58,0.46,0.85h-9.58c-0.94,0-1.88-0.3-2.64-0.91c-0.15-0.15-0.3-0.27-0.46-0.43
						c-1.09-1.09-1.76-2.58-1.76-4.26s0.67-3.19,1.76-4.29c0.58-0.55,1.22-1,1.95-1.31c0.49-0.18,1-0.27,1.52-0.27h9.64
						c-0.33,0.49-0.64,0.97-0.88,1.49c-0.67,1.4-1.06,2.95-1.06,4.56C530.92,1035.88,531.31,1037.43,531.98,1038.8z M529.73,1022.72
						c0.15,0.27,0.3,0.55,0.46,0.82h-7.33c-0.94,0-1.88-0.3-2.64-0.91c-0.15-0.12-0.3-0.27-0.46-0.4c-1.09-1.12-1.76-2.61-1.76-4.29
						s1.76-4.26,1.76-4.26c2.22,1.79,5.5,2.1,9.27,1.7c0,0-0.36,1.82-0.36,2.77C528.67,1019.77,529.06,1021.32,529.73,1022.72z
						 M532.41,1017.82c0-0.33,0.03-0.67,0.09-0.97c0.15-0.94,0.79-1.73,1.67-2.1l5.44-2.4c3.01,2.49,6.54,4.77,10.61,6.81
						c-0.3,0.91-0.79,1.73-1.46,2.37c-1.03,1.03-2.46,1.7-4.04,1.7h-8.3c-0.64,0-1.22-0.24-1.7-0.64c-0.73-0.67-1.31-1.4-1.7-2.19
						C532.62,1019.58,532.41,1018.73,532.41,1017.82z M554.14,1037.95c-1.03,1.03-2.46,1.7-4.04,1.7h-10.55
						c-0.64,0-1.28-0.21-1.76-0.64c-0.73-0.67-1.34-1.4-1.7-2.19c-0.4-0.82-0.61-1.67-0.61-2.58s0.21-1.76,0.61-2.55
						c0.58-1.22,1.58-2.28,2.92-3.07l0.15-0.09c0.39-0.21,0.85-0.33,1.31-0.33h9.48c3.04,0,5.68,2.31,5.87,5.32
						C555.94,1035.27,555.27,1036.85,554.14,1037.95z M536.42,992.13c-1.15,0.43-2.34,0.79-3.59,0.97
						c-4.5,0.67-11.83,2.64-19.4,4.68l-1.31-10.49h43.35l-1.09,8.63l-5.99-3.07C543.96,991.37,539.85,990.86,536.42,992.13z
						 M563.87,1009.8c1.67-0.97,3.5-0.91,4.1,0.09c0.58,1.03-0.3,2.64-1.98,3.62c-1.67,0.97-3.5,0.91-4.07-0.09
						C561.32,1012.38,562.2,1010.77,563.87,1009.8z M565.51,887.68c4.26,7.48,6.02,15.44,5.62,23.83c-0.18,3.37-2.19,6.38-5.26,7.78
						c-17.3,7.87-28.36,19.58-31.34,36.21C517.57,921.6,560.95,906.55,565.51,887.68z M549.92,900.6c0.15,1.19-0.36,2.34-1.34,3.01
						c-19.52,13.07-29.09,35.45-17.94,53.99c-47.58-28.82-4.07-50.25,11.7-84.67C545.97,881.08,548.49,890.32,549.92,900.6z
						 M489.94,936.47c-1.76-14.87,12.37-26.69,15.78-44.51c2.16,4.07,4.19,8.76,6.11,13.83c0.52,1.31,0.27,2.77-0.58,3.86
						c-15.23,19.52-3.53,39.55,12.1,48.88C507.05,959.18,491.73,951.43,489.94,936.47z M504.83,965.74h57.97v15.5h-57.97V965.74z
						 M514.93,1071.84h-0.03c-3.16,0-5.75-2.55-5.75-5.72c0-1.58,0.67-3.01,1.7-4.04c1.03-1.03,2.46-1.67,4.04-1.67h0.21
						c-1.09,1.67-1.73,3.68-1.73,5.84C513.38,1068.32,513.95,1070.23,514.93,1071.84z M513.38,1050.14c0,2.07,0.58,3.98,1.55,5.59
						h-0.03c-3.16,0-5.75-2.55-5.75-5.72c0-1.58,0.67-3.01,1.7-4.04c1.03-1.03,2.46-1.67,4.04-1.67h0.21
						C514.01,1045.97,513.38,1048.01,513.38,1050.14z M513.38,1034.05c0,2.04,0.58,3.95,1.55,5.59h-0.03
						c-3.16,0-5.75-2.58-5.75-5.75c0-1.58,0.67-3.01,1.7-4.04c1.03-1.03,2.46-1.67,4.04-1.67h0.21
						C514.01,1029.86,513.38,1031.9,513.38,1034.05z M513.38,1016.97c0,2.07,0.58,3.98,1.55,5.59h-0.03c-3.16,0-5.75-2.55-5.75-5.72
						c0-1.58,0.67-3.01,1.7-4.04c1.03-1.03,2.46-1.67,4.04-1.67h0.21C514.01,1012.8,513.38,1014.81,513.38,1016.97z M516.26,1000.74
						c7.63,0.67,15.11-0.82,22.47-3.98c0.94-0.4,2.07-0.12,2.61,0.73c0.85,1.37,0.36,3.53-1,4.2
						C543.96,1013.32,515.11,1013.38,516.26,1000.74z M520.22,1070.93c-0.15-0.12-0.3-0.24-0.46-0.4c-1.09-1.12-1.76-2.61-1.76-4.29
						c0-1.67,0.67-3.16,1.76-4.26c0.58-0.55,1.22-1,1.95-1.31c0.49-0.21,1-0.27,1.52-0.27h9.64c-0.33,0.46-0.64,0.97-0.88,1.49
						c-0.67,1.37-1.06,2.95-1.06,4.56c0,1.61,0.4,3.16,1.06,4.56c0.12,0.27,0.3,0.55,0.46,0.82h-9.58
						C521.92,1071.84,520.98,1071.54,520.22,1070.93z M538.67,1121.58c-0.3,2.43-2.4,4.29-4.86,4.29c-2.46,0-4.56-1.85-4.86-4.29
						l-5.56-44.45h20.85L538.67,1121.58z M539.55,1071.84c-0.64,0-1.28-0.21-1.76-0.64c-0.73-0.64-1.34-1.37-1.7-2.19
						c-0.4-0.79-0.61-1.64-0.61-2.55c0-0.91,0.21-1.76,0.61-2.58c0.58-1.19,1.58-2.28,2.92-3.07l0.15-0.06
						c0.39-0.24,0.85-0.33,1.31-0.33h9.48c3.04,0,5.68,2.28,5.87,5.32c0.12,1.73-0.55,3.31-1.67,4.44
						c-1.03,1.03-2.46,1.67-4.04,1.67H539.55z M576.82,1068.74c0,6.54-5.32,11.83-11.86,11.83h-13.65
						c9.76-6.44,12.74-16.29,13.65-27.18c6.54,0,11.86,5.29,11.86,11.83V1068.74z M557.64,1021.77c7.17-0.49,14.87-3.31,15.57-10.64
						c9.94,9.12,22.22,27.27,11.25,36.63C572.5,1053.39,562.11,1040.41,557.64,1021.77z M596.03,1079.69
						c-1.64,1.67-3.95,2.71-6.48,2.71c-2.49,0-4.8-1.03-6.44-2.71c-1.67-1.64-2.68-3.92-2.68-6.44s1-4.83,2.68-6.48
						c1.64-1.64,3.95-2.68,6.44-2.68c2.52,0,4.83,1.03,6.48,2.68c1.64,1.64,2.67,3.95,2.67,6.48S597.68,1078.04,596.03,1079.69z
						 M616.1,1060.93c-1.95,1.95-4.62,3.16-7.6,3.16c-2.95,0-5.68-1.22-7.63-3.16c-1.95-1.95-3.16-4.68-3.16-7.63
						c0-2.98,1.22-5.65,3.16-7.63c1.95-1.95,4.68-3.13,7.63-3.13c2.98,0,5.65,1.19,7.6,3.13c1.98,1.98,3.16,4.65,3.16,7.63
						C619.26,1056.25,618.08,1058.98,616.1,1060.93z"/>
				</g>
			</g>
		</g>
	</g>
	<linearGradient id="SVGID_43_" gradientUnits="userSpaceOnUse" x1="412.9893" y1="1000" x2="685.2106" y2="1000">
		<stop  offset="0" style="stop-color:#0F114C"/>
		<stop  offset="1" style="stop-color:#231F20"/>
	</linearGradient>
	<circle style="fill:none;stroke:url(#SVGID_43_);stroke-width:6.0801;stroke-miterlimit:10;" cx="549.1" cy="1000" r="133.07"/>
</g>
</svg>
